<?xml version="1.0" standalone="no"?>
<!DOCTYPE svg PUBLIC "-//W3C//DTD SVG 1.1//EN" "http://www.w3.org/Graphics/SVG/1.1/DTD/svg11.dtd" >
<svg xmlns="http://www.w3.org/2000/svg">
<metadata></metadata>
<defs>
<font id="linux_libertine_o_cregular" horiz-adv-x="901" >
<font-face units-per-em="2048" ascent="1638" descent="-410" />
<missing-glyph horiz-adv-x="512" />
<glyph horiz-adv-x="2048" />
<glyph horiz-adv-x="2048" />
<glyph unicode="&#xd;" horiz-adv-x="682" />
<glyph unicode=" "  horiz-adv-x="512" />
<glyph unicode="&#x09;" horiz-adv-x="512" />
<glyph unicode="&#xa0;" horiz-adv-x="512" />
<glyph unicode="!" horiz-adv-x="464" d="M121 1198q0 75 34.5 112.5t75.5 37.5q46 0 80.5 -39t34.5 -111q0 -76 -23 -206t-30 -189q-11 -97 -18.5 -183.5t-10.5 -134t-4 -55.5q-4 -41 -29 -41q-15 0 -20.5 7t-7.5 20q-1 13 -5.5 78.5t-11.5 152t-14 156.5q-7 72 -29 194t-22 201zM123 88q0 44 32 76.5t76 32.5 t76.5 -32.5t32.5 -76.5t-32.5 -76t-76.5 -32t-76 32t-32 76z" />
<glyph unicode="&#x22;" horiz-adv-x="688" d="M129 1217q0 36 30.5 69t73.5 33q37 0 54.5 -20t17.5 -48q0 -15 -16.5 -107.5t-33.5 -177.5l-17 -85l-56 -9q-53 327 -53 345zM387 1219q0 36 31 69t74 33q37 0 54 -20t17 -48q0 -15 -16.5 -107.5t-33.5 -177.5l-17 -85l-56 -9q-53 327 -53 345z" />
<glyph unicode="#" horiz-adv-x="897" d="M49 375l14 98h187l35 225h-185l17 101h184l55 348h70l-57 -348h227l53 348h68l-55 -348h186l-17 -101h-184l-37 -225h185l-15 -98h-182l-57 -348h-68l53 348h-223l-57 -348h-68l55 348h-184zM317 473h228l35 225h-226z" />
<glyph unicode="$" horiz-adv-x="897" d="M84 299l53 6q26 -101 96 -175t170 -85v496q-47 21 -80.5 38t-80.5 49.5t-76.5 67t-51.5 85t-22 108.5q0 63 29 116t76 86.5t99.5 53t106.5 25.5v114h70v-113q40 -2 124.5 -11t113.5 -5q1 -32 6 -72.5t9.5 -69t13 -78t12.5 -73.5l-54 -8l-10 37q-30 103 -81 155.5 t-134 61.5v-438q344 -130 344 -351q0 -19 -1.5 -39.5t-9.5 -54.5t-21 -64t-39.5 -63.5t-61.5 -58t-89.5 -42t-121.5 -21.5v-142h-70v142q-64 3 -133.5 23.5t-83.5 20.5q-15 0 -31 -11t-40 -11q0 78 -31 301zM223 897q0 -114 180 -198v408q-77 -12 -128.5 -67.5t-51.5 -142.5 zM473 46q34 5 65.5 18t62.5 37t50 65t19 94q0 58 -18 103t-50.5 74t-61.5 45.5t-67 31.5v-468z" />
<glyph unicode="%" horiz-adv-x="1304" d="M121 831q0 121 80.5 223.5t187.5 102.5q41 0 81 -15.5t56 -35.5q111 -51 219 -51q82 0 166.5 24.5t141.5 85.5l77 -14l-845 -1180l-76 19l737 1028q-95 -39 -221 -39q-36 0 -85.5 13t-78.5 30q6 -24 6 -51q0 -52 -17.5 -113t-48.5 -118t-83 -94.5t-113 -37.5 q-60 0 -103.5 34.5t-62 83.5t-18.5 105zM225 803q0 -71 28.5 -103t63.5 -32q53 0 97.5 51t67 119.5t22.5 130.5q0 67 -28 95t-64 28q-71 0 -129 -97t-58 -192zM778 186q0 122 80.5 224t190.5 102q73 0 124.5 -43t51.5 -143q0 -54 -17.5 -116t-48.5 -118.5t-82.5 -93.5 t-111.5 -37q-88 0 -137.5 68.5t-49.5 156.5zM885 158q0 -72 28 -105t64 -33q53 0 97.5 52.5t66.5 121t22 128.5q0 37 -10 63.5t-25.5 38.5t-29.5 17t-27 5q-71 0 -128.5 -97t-57.5 -191z" />
<glyph unicode="&#x26;" horiz-adv-x="1443" d="M90 319q0 123 88.5 229.5t288.5 219.5q-102 176 -102 291q0 100 84.5 180t228.5 80q110 0 185 -60t75 -155q0 -82 -84.5 -174.5t-218.5 -169.5l8 -17q63 -108 250 -360q209 310 209 395q0 33 -33 33h-57q-11 0 -11 14v35l3 4q108 -4 178 -4l178 4l4 -4v-33q0 -16 -18 -16 h-58q-46 0 -77.5 -38.5t-94.5 -154.5q-92 -180 -174 -305l70 -94q45 -64 87.5 -98.5t69.5 -34.5q51 0 88 27.5t68 87.5l33 -17q-34 -102 -88.5 -155.5t-112.5 -53.5q-29 0 -51 4t-53 17t-64 43.5t-67 77.5l-60 76q-77 -105 -167.5 -161.5t-213.5 -56.5q-85 0 -154 19 t-123 59t-84 107.5t-30 158.5zM252 319q0 -141 69 -208.5t175 -67.5q53 0 95 13.5t80.5 46t67 66t72.5 93.5q-80 105 -179.5 249.5t-119.5 180.5q-150 -83 -205 -169.5t-55 -203.5zM512 1063q0 -74 78 -221q97 64 154 135t57 127q0 69 -35 107t-98 38q-52 0 -104 -48 t-52 -138z" />
<glyph unicode="'" horiz-adv-x="389" d="M109 1217q0 36 30.5 69t73.5 33q37 0 54.5 -20t17.5 -48q0 -15 -17 -107.5t-34 -177.5l-17 -85l-55 -9q-53 327 -53 345z" />
<glyph unicode="(" horiz-adv-x="604" d="M90 516q0 275 120.5 521t313.5 411l37 -37q-32 -36 -59 -70.5t-77.5 -121t-85 -178t-62 -232.5t-27.5 -293t26.5 -293t61.5 -234t84 -178t78.5 -122.5t60.5 -71.5l-37 -35q-87 76 -157.5 164t-115 166t-77 164t-48 149t-24.5 130.5t-10.5 98.5t-1.5 62z" />
<glyph unicode=")" horiz-adv-x="604" d="M45 -379q32 36 59 70.5t77.5 121t85 178t62 232.5t27.5 293t-26.5 293t-61.5 234t-84 178t-78.5 122.5t-60.5 71.5l37 35q87 -76 157.5 -164t115 -166t77 -164t48 -149t24.5 -130.5t10.5 -98.5t1.5 -62q0 -275 -120.5 -521t-313.5 -411z" />
<glyph unicode="*" horiz-adv-x="886" d="M154 1245q0 25 16.5 43.5t50.5 18.5q30 0 59 -17.5t65.5 -45t72.5 -42.5q-4 41 -25.5 102t-21.5 87q0 33 17 56t44 23q30 0 49 -18t19 -53q0 -29 -18.5 -99.5t-20.5 -99.5q37 16 73.5 44.5t64 45.5t56.5 17q36 0 53 -20.5t17 -41.5q0 -76 -141 -76q-64 0 -113 -8 q25 -28 72 -58.5t72.5 -57t25.5 -62.5q0 -26 -18 -42.5t-41 -16.5q-36 0 -59.5 33t-46.5 93.5t-40 86.5q-15 -27 -39.5 -90.5t-46.5 -93t-57 -29.5q-26 0 -43 16.5t-17 40.5q0 39 27 65.5t74 56.5t72 58q-36 8 -87 8q-82 0 -123.5 16.5t-41.5 59.5z" />
<glyph unicode="+" horiz-adv-x="1079" d="M135 426v100h352v357h105v-357h352v-100h-352v-356h-105v356h-352z" />
<glyph unicode="," horiz-adv-x="450" d="M92 -221q73 19 124.5 72t51.5 90q0 56 -73 63q-91 15 -91 90q0 43 31 72t78 29q61 0 98 -55.5t37 -147.5q0 -102 -73.5 -173.5t-172.5 -90.5q-20 17 -10 51z" />
<glyph unicode="-" horiz-adv-x="681" d="M68 479q0 25 16.5 50.5t34.5 25.5h469q28 0 28 -37q0 -19 -18 -46.5t-37 -27.5h-463q-13 0 -21.5 10.5t-8.5 24.5z" />
<glyph unicode="." horiz-adv-x="450" d="M117 88q0 44 32 76.5t76 32.5t76.5 -32.5t32.5 -76.5t-32.5 -76t-76.5 -32t-76 32t-32 76z" />
<glyph unicode="/" horiz-adv-x="595" d="M8 -43l486 1440h84l-486 -1440h-84z" />
<glyph unicode="0" d="M76 569q0 139 31.5 257t84 195t119.5 120t140 43q65 0 127.5 -37t107.5 -98q131 -172 131 -461q0 -131 -25 -238t-64 -174.5t-89.5 -114t-99.5 -65.5t-97 -19q-106 0 -191 83t-130 217.5t-45 291.5zM242 549q0 -49 2.5 -96.5t9.5 -108.5t21.5 -111t36 -94t55.5 -69 t77 -25q13 0 27.5 3t35.5 14.5t40 30t38 53t31 79.5q37 134 37 400q0 182 -33.5 297.5t-82.5 158.5q-36 31 -86 31q-30 0 -56 -12t-55 -49.5t-50 -97t-34.5 -163.5t-13.5 -241z" />
<glyph unicode="1" d="M188 983q110 51 159.5 75t109.5 57t112 69q5 0 6.5 -0.5t3 -2.5t1.5 -7v-1016q0 -57 13.5 -75t63.5 -20l107 -4q16 0 16 -16v-43l-4 -4l-276 4l-281 -4l-4 4v43q0 5 4.5 10.5t11.5 5.5l123 4q28 1 44 6.5t23.5 20t9 28t1.5 40.5v700v34t-1.5 27.5t-4 24.5t-7.5 17 t-13 12.5t-19 3.5q-46 0 -174 -57z" />
<glyph unicode="2" d="M119 0q0 39 3.5 67.5t15.5 65.5t34.5 73.5t61 85t94.5 105.5l143 142q86 88 124 168t38 174q0 66 -20.5 115.5t-52.5 74.5t-63.5 37t-60.5 12q-95 0 -137.5 -38.5t-42.5 -84.5q0 -19 8 -47t8 -45q0 -37 -22 -55.5t-51 -18.5q-33 0 -55.5 22.5t-22.5 53.5q0 45 21.5 92.5 t61 89.5t104 68.5t141.5 26.5q62 0 121 -17.5t110.5 -51.5t83 -92.5t31.5 -133.5q0 -53 -13.5 -98t-44.5 -89t-58 -73.5t-79 -79.5l-194 -189q-12 -12 -28.5 -30.5t-47.5 -57t-51.5 -80t-20.5 -73.5h348q53 0 83.5 32t51.5 115l52 -8l-41 -258h-633z" />
<glyph unicode="3" d="M92 109q0 24 21 44.5t51 20.5q45 0 76 -47q16 -24 29.5 -39t48 -30t79.5 -15q23 0 52.5 8.5t66 31t66 57t49.5 93.5t20 132q0 253 -258 253q-17 0 -63 -8l-8 62q112 19 197 108.5t85 165.5q0 83 -46.5 128.5t-113.5 45.5q-24 0 -53.5 -7t-64.5 -22t-58.5 -47.5 t-23.5 -76.5q0 -36 -16.5 -68.5t-53.5 -32.5q-24 0 -38 16.5t-16.5 29t-2.5 20.5q0 21 10.5 50.5t37.5 65.5t66.5 65.5t106 50t147.5 20.5q71 0 124 -20.5t80.5 -53t40.5 -66t13 -67.5q0 -143 -200 -270q47 -7 90.5 -27.5t84.5 -56.5t66 -96t25 -136q0 -130 -61.5 -225 t-159 -140.5t-215.5 -45.5q-61 0 -124.5 15.5t-110 46t-46.5 67.5z" />
<glyph unicode="4" d="M68 395q0 2 4 6q89 98 235.5 351t227.5 422q5 10 14 10q2 0 15 -5t29.5 -10.5t27.5 -7.5q-120 -289 -414 -755h323v321q0 29 21 41q50 35 90 35q19 0 24 -14.5t5 -49.5v-333h164q28 0 28 -31q0 -18 -18 -40t-37 -22h-137v-166q0 -46 13 -65.5t54 -22.5l56 -4q14 0 14 -14 v-41l-4 -4q-129 4 -213 4l-215 -4l-4 4v41q0 14 14 14l55 4q47 4 68.5 24.5t21.5 63.5v166h-380q-65 0 -82 82z" />
<glyph unicode="5" d="M104 125q0 28 20.5 46.5t49.5 18.5q28 0 48.5 -16t43.5 -47q18 -24 32 -38.5t40 -27t57 -12.5q100 0 166 82.5t66 214.5q0 151 -66.5 233.5t-167.5 82.5q-130 0 -246 -48l66 560q125 -11 209 -11q125 0 319 21l13 -6l-31 -134q-100 -10 -203 -10q-80 0 -233 17l-39 -324 q83 31 196 31q79 0 144.5 -32.5t107.5 -86t65 -120.5t23 -138q0 -173 -110.5 -287t-282.5 -114q-60 0 -126 19t-113.5 53.5t-47.5 72.5z" />
<glyph unicode="6" d="M90 471q0 144 53.5 276.5t157.5 237.5q98 99 207.5 145t261.5 54l6 -54q-108 -10 -192 -42.5t-154 -100.5q-142 -139 -178 -393q35 42 103 71t128 29q86 0 152 -27.5t101.5 -66t57.5 -89.5t28.5 -88.5t6.5 -72.5q0 -46 -9.5 -92.5t-35 -97.5t-63.5 -90t-102.5 -64.5 t-145.5 -25.5q-50 0 -98 11.5t-101.5 44.5t-92.5 85.5t-65 142.5t-26 207zM244 465q0 -99 16.5 -176t42 -123t60 -75.5t66.5 -40.5t65 -11q78 0 130 73.5t52 223.5q0 33 -5 67.5t-21 76.5t-40.5 74t-68 53.5t-99.5 21.5q-110 0 -196 -92q-2 -20 -2 -72z" />
<glyph unicode="7" d="M106 905q29 180 31 279q0 6 8 6q10 -2 34.5 -14.5t62.5 -12.5h399q81 0 150 21l30 -23q-250 -609 -442 -1179l-133 -7l-6 13q142 319 438 1054h-346q-24 0 -38 -1t-37 -8.5t-38 -22t-31.5 -42.5t-27.5 -69z" />
<glyph unicode="8" d="M92 283q0 134 113 233q86 75 141 117l-35 20q-90 56 -131 118.5t-41 143.5q0 115 91 192t237 77q139 0 218 -68.5t79 -175.5q0 -135 -221 -281l119 -77q151 -100 151 -269q0 -57 -23.5 -114.5t-68 -107t-118.5 -80.5t-165 -31q-158 0 -252 78.5t-94 224.5zM219 283 q0 -62 22 -111.5t56.5 -77.5t72 -42.5t72.5 -14.5q29 0 58.5 5.5t62.5 22t57.5 41.5t41 68.5t16.5 99.5q0 153 -172 258l-90 56q-58 -39 -100 -85.5t-61.5 -88.5t-27.5 -73.5t-8 -57.5zM276 952q0 -36 7.5 -64t39 -69t89.5 -78l59 -36q166 122 166 237q0 76 -46 134.5 t-134 58.5q-83 0 -132 -55t-49 -128z" />
<glyph unicode="9" d="M63 813q0 46 9.5 92.5t35 98t64 90.5t103 64.5t145.5 25.5q50 0 98 -11.5t101.5 -45t92.5 -85.5t65 -142.5t26 -207.5q0 -144 -53.5 -276.5t-157.5 -237.5q-98 -99 -207.5 -144.5t-261.5 -53.5l-6 53q108 10 192 42.5t154 100.5q142 139 178 393q-35 -42 -103 -71 t-128 -29q-86 0 -152 27.5t-101.5 66t-58 89.5t-29 89t-6.5 72zM217 827q0 -33 5 -67.5t21 -76.5t40.5 -73.5t68 -53t99.5 -21.5q110 0 196 92q2 20 2 71q0 99 -16.5 176t-42 123t-60 75.5t-66.5 40.5t-65 11q-78 0 -130 -73.5t-52 -223.5z" />
<glyph unicode=":" horiz-adv-x="450" d="M131 188q0 44 32.5 76.5t76.5 32.5t76 -32.5t32 -76.5t-32 -76t-76 -32t-76.5 32t-32.5 76zM131 727q0 44 32.5 76.5t76.5 32.5t76 -32.5t32 -76.5t-32 -76.5t-76 -32.5t-76.5 32.5t-32.5 76.5z" />
<glyph unicode=";" horiz-adv-x="450" d="M92 -221q73 19 124.5 72t51.5 90q0 56 -73 63q-91 15 -91 90q0 43 31 72t78 29q61 0 98 -55.5t37 -147.5q0 -102 -73.5 -173.5t-172.5 -90.5q-20 17 -10 51zM111 727q0 44 32 76.5t76 32.5t76.5 -32.5t32.5 -76.5t-32.5 -76.5t-76.5 -32.5t-76 32.5t-32 76.5z" />
<glyph unicode="&#x3c;" horiz-adv-x="997" d="M100 440v99l799 288v-102l-649 -236l649 -237v-102z" />
<glyph unicode="=" horiz-adv-x="1079" d="M135 295v100h809v-100h-809zM135 551v100h809v-100h-809z" />
<glyph unicode="&#x3e;" horiz-adv-x="997" d="M100 145v103l650 235l-650 238v102l799 -291v-98z" />
<glyph unicode="?" horiz-adv-x="829" d="M59 1085q0 101 105 185q93 80 254 80q156 0 247 -84.5t91 -225.5q0 -47 -14.5 -90t-33 -72.5t-53 -63t-56 -50.5t-60.5 -45q-88 -65 -107 -103q-37 -70 -37 -149v-90q0 -21 -26 -21q-27 0 -27 21v94q0 43 3.5 73.5t15.5 76.5t41.5 91.5t76.5 88.5q66 61 94.5 111.5 t28.5 119.5q0 102 -59.5 179t-145.5 77q-85 0 -141.5 -35t-56.5 -82q0 -38 12 -53t12 -49q0 -33 -24 -52.5t-56 -19.5t-58 20t-26 68zM260 88q0 44 32.5 76.5t76.5 32.5t76 -32.5t32 -76.5t-32 -76t-76 -32t-76.5 32t-32.5 76z" />
<glyph unicode="@" horiz-adv-x="1832" d="M121 457q0 162 67 309t179.5 253.5t268 169t325.5 62.5q162 0 303.5 -51.5t240.5 -141t156 -214t57 -266.5q0 -74 -18 -144.5t-62 -140t-109.5 -121.5t-168.5 -84.5t-232 -32.5q-40 0 -56.5 26t-16.5 58q0 33 30 129l-4 2q-63 -106 -137 -158.5t-135 -52.5 q-72 0 -124.5 27.5t-78 70t-36.5 81.5t-11 75q0 106 44 205.5t113 168.5t154 111t166 42q52 0 97.5 -24.5t60.5 -63.5l10 49l109 26l30 -10l-122 -528q-27 -124 -27 -137t8.5 -19t14.5 -6q82 0 141.5 20.5t105.5 69.5t69 135t23 211q0 122 -39.5 227t-103.5 177 t-145.5 123.5t-165 75.5t-162.5 24q-96 0 -188 -25t-177 -80.5t-149 -135.5t-102.5 -197t-38.5 -258q0 -69 10 -138.5t33.5 -144.5t59 -141.5t91 -127t124 -104t162.5 -69t204 -25.5q241 0 411 135l27 -37q-108 -83 -213 -124.5t-264 -41.5q-180 0 -332.5 61t-256 166 t-162 248t-58.5 306zM709 332q0 -189 159 -189q54 0 121 77t115 190q61 142 61 237q0 57 -38 93t-95 36q-35 0 -89 -20t-95 -62q-139 -139 -139 -362z" />
<glyph unicode="A" horiz-adv-x="1423" d="M4 0v39q0 14 16 16q75 5 117 33.5t82 120.5l455 1065q18 41 32.5 57.5t36.5 16.5q20 0 31.5 -14t24.5 -48l420 -1110q22 -60 56 -87t95 -32l23 -2q20 -2 20 -16v-39l-6 -4q-158 4 -238 4l-272 -4l-2 4v39q0 15 14 16l58 4q59 5 80 25q12 12 12 32q0 14 -6 31l-125 347 h-426q-36 0 -50 -7.5t-22 -27.5l-119 -297q-7 -18 -7 -33q0 -20 12 -37q21 -29 77 -33l60 -4q16 -2 16 -16v-39l-4 -4q-223 4 -272 4l-185 -4zM487 607q-3 -6 -3 -10q0 -7 8 -11q12 -6 47 -6h356l-199 546h-4z" />
<glyph unicode="B" horiz-adv-x="1191" d="M35 0v39q0 15 14 16l62 4q67 5 86.5 19.5t19.5 66.5v1031q0 51 -19.5 66t-86.5 20l-62 4q-14 1 -14 14v41l4 2q159 -2 260 -2q52 0 133.5 1t114.5 1q440 0 440 -313q0 -82 -54.5 -157.5t-135.5 -115.5q143 -41 227 -130.5t84 -229.5q0 -56 -14 -107.5t-50.5 -102.5 t-93 -88t-148.5 -60t-210 -23q-100 0 -172 2t-121 2l-260 -4zM383 160q0 -53 33.5 -73.5t136.5 -20.5q113 0 189 20.5t115 60t54 85t15 106.5q0 146 -94.5 244t-266.5 98h-182v-520zM383 750h152q294 0 294 235q0 74 -25 129t-66.5 84t-85.5 42t-91 13q-45 0 -75 -1.5 t-50 -7t-30.5 -10t-15.5 -17t-6 -22t-1 -30.5v-415z" />
<glyph unicode="C" horiz-adv-x="1318" d="M76 645q0 147 54.5 279t144.5 224t209 146t245 54q109 0 195.5 -22t148 -45.5t105.5 -25.5q9 -127 45 -317l-62 -8q-103 342 -454 342q-51 0 -109.5 -20.5t-120 -67.5t-111 -113t-81 -167t-31.5 -220q0 -91 18 -179.5t56.5 -168.5t93 -140.5t133 -96.5t170.5 -36 q143 0 255 52.5t220 171.5l47 -31q-104 -136 -237 -206t-283 -70q-128 0 -236 37.5t-183.5 101.5t-128.5 149.5t-78 180.5t-25 196z" />
<glyph unicode="D" horiz-adv-x="1427" d="M35 0v37q0 16 14 18l62 4q55 4 80.5 24.5t25.5 68.5v1019q0 54 -20.5 70t-85.5 21l-58 4q-18 2 -18 16v39l4 4q202 -4 258 -4q66 0 168.5 2t167.5 2q145 0 276 -55t225 -148.5t149.5 -221.5t55.5 -269q0 -105 -22 -193.5t-60 -153t-91 -115t-111.5 -82.5t-126 -53 t-130.5 -29.5t-128 -8.5q-114 0 -211.5 2t-161.5 2q-168 0 -258 -4zM383 147q0 -36 14.5 -51.5t60.5 -22.5t148 -7q92 0 168 13.5t148 49t121 92.5t78.5 148.5t29.5 212.5q0 99 -19 191.5t-64 180.5t-112 153.5t-170 105.5t-231 40q-44 0 -70 -2t-52.5 -9.5t-38 -23.5 t-11.5 -42v-1029z" />
<glyph unicode="E" horiz-adv-x="1124" d="M25 0v41q0 13 16 14l61 4q59 4 82 24t23 64v1027q0 47 -22.5 65.5t-82.5 22.5l-61 4q-16 1 -16 14v41l4 2q207 -2 262 -2h517q55 0 96 8q7 0 8 -6q17 -90 44 -297l-59 -10q-20 62 -35 96t-41 67t-64.5 46.5t-94.5 13.5h-216q-38 0 -55.5 -14.5t-17.5 -50.5v-435h260 q52 0 74.5 20.5t27.5 65.5l6 52q0 6 4.5 11t10.5 5h45q8 0 8 -8q-8 -108 -8 -176l8 -187l-6 -6h-47q-7 0 -12 4.5t-5 9.5l-4 54q-4 44 -26.5 61t-75.5 17h-260v-515q0 -39 18 -53t55 -14h279q201 0 276 268l64 -10q-39 -165 -76 -342q-164 4 -262 4h-436l-262 -4z" />
<glyph unicode="F" horiz-adv-x="976" d="M25 1280v41l4 2q207 -2 262 -2h517q55 0 96 8q7 0 8 -6q17 -90 44 -297l-59 -10q-20 62 -35 96t-41 67t-64.5 46.5t-94.5 13.5h-216q-38 0 -55.5 -14.5t-17.5 -50.5v-435h260q52 0 74.5 20.5t27.5 65.5l6 52q0 6 4.5 11t10.5 5h45q8 0 8 -8q-8 -112 -8 -180l8 -183l-6 -6 h-47q-7 0 -12 4.5t-5 9.5l-4 54q-4 44 -26.5 61t-75.5 17h-260v-515q0 -48 26 -70t86 -22h54q16 0 16 -16v-39l-2 -4q-157 4 -258 4l-264 -4l-4 4v39q0 16 16 16h53q60 0 85.5 23.5t25.5 68.5v1027q0 47 -22.5 65.5t-82.5 22.5l-61 4q-16 1 -16 14z" />
<glyph unicode="G" horiz-adv-x="1419" d="M66 629q0 110 27.5 209.5t76 177.5t115.5 141.5t145 105t164 63.5t174 22q85 0 157.5 -14.5t113.5 -32t88 -32t87 -14.5q17 -175 46 -315l-62 -12q-17 57 -39.5 103.5t-59.5 93t-85 77.5t-118.5 50.5t-156.5 19.5q-137 0 -250 -75t-179 -213.5t-66 -313.5 q0 -82 23 -167.5t70 -166t112.5 -144t158 -101.5t197.5 -38q87 0 168.5 25.5t132.5 73.5v313q0 46 -24.5 63.5t-88.5 22.5l-53 4q-16 2 -16 16v54l4 4q178 -4 258 -4l190 4l4 -4v-54q0 -14 -16 -16q-49 -5 -70.5 -22.5t-21.5 -67.5v-238q0 -31 33 -57q-109 -94 -240.5 -142 t-306.5 -48q-151 0 -281.5 52t-219.5 140t-140 206.5t-51 250.5z" />
<glyph unicode="H" horiz-adv-x="1433" d="M35 1282v39l4 4q178 -4 258 -4l264 4l4 -4v-39q0 -14 -16 -16l-53 -4q-62 -5 -87.5 -24t-25.5 -62v-433h668v433q0 45 -25 63t-86 23l-53 4q-19 2 -19 16v39l4 4q178 -4 258 -4l265 4l4 -4v-39q0 -14 -17 -16l-53 -4q-62 -4 -87 -23.5t-25 -62.5v-1024q0 -47 25 -67.5 t87 -25.5l53 -4q19 -2 19 -16v-39l-4 -4q-178 4 -258 4l-265 -4l-4 4v39q0 14 17 16l53 4q64 5 87.5 26.5t23.5 66.5v505h-668v-510q0 -46 25.5 -64.5t87.5 -23.5l53 -4q16 -2 16 -16v-39l-4 -4q-176 4 -258 4l-262 -4l-4 4v39q0 14 14 16l55 4q62 4 86.5 24.5t24.5 63.5 v1029q0 44 -25.5 62.5t-85.5 23.5l-55 4q-16 2 -16 16z" />
<glyph unicode="I" horiz-adv-x="600" d="M35 1282v39l4 4q204 -4 260 -4q62 0 262 4l4 -4v-39q0 -14 -16 -16l-53 -4q-62 -5 -87.5 -24t-25.5 -62v-1031q0 -45 25.5 -63t87.5 -23l53 -4q16 -2 16 -16v-39l-4 -4q-97 4 -260 4q-160 0 -260 -4l-4 4v39q0 14 14 16l55 4q63 4 87 23.5t24 62.5v1031q0 45 -25 63 t-86 23l-55 4q-16 2 -16 16z" />
<glyph unicode="J" horiz-adv-x="645" d="M-121 -254q0 31 26.5 52.5t51.5 21.5q29 0 51.5 -9.5t32 -19t22.5 -27.5q27 -36 58 -36q23 0 44 8.5t45.5 36t42 72t29 124t11.5 185.5v991q0 71 -31 93t-115 26l-41 2q-18 0 -18 16v39l4 4q201 -4 281 -4l243 4l5 -4v-39q0 -14 -17 -16l-35 -2q-62 -4 -86 -24t-24 -64 v-977q0 -95 -16 -172t-47.5 -134t-67 -98.5t-84.5 -79.5q-94 -80 -234 -80q-42 0 -86.5 30.5t-44.5 80.5z" />
<glyph unicode="K" horiz-adv-x="1304" d="M35 1282v39l4 4q204 -4 260 -4q62 0 262 4l4 -4v-39q0 -14 -16 -16l-53 -4q-62 -5 -87.5 -24t-25.5 -62v-465q54 4 91 23.5t73 56.5l344 360q30 34 41 56t0 37t-49 18l-43 4q-17 2 -17 16v39l4 4q156 -4 238 -4l197 4l10 -4v-39q0 -16 -23 -16q-52 -6 -84 -14t-80 -35 t-92 -74l-286 -309q-48 -51 -62 -70.5t-14 -30.5q0 -24 24 -51l449 -532q65 -80 160 -93l14 -2q18 -2 18 -16v-39l-6 -4q-153 4 -233 4l-123 -4l-4 4v12q0 87 -41 138l-334 405q-61 78 -172 78v-488q0 -45 25.5 -63t87.5 -23l53 -4q16 -2 16 -16v-39l-4 -4q-97 4 -260 4 q-160 0 -260 -4l-4 4v39q0 14 14 16l55 4q63 4 87 23.5t24 62.5v1031q0 45 -25 63t-86 23l-55 4q-16 2 -16 16z" />
<glyph unicode="L" horiz-adv-x="1077" d="M35 0v39q0 14 16 16l62 4q65 5 84.5 20.5t19.5 67.5v1029q0 44 -25.5 62.5t-85.5 23.5l-55 4q-16 2 -16 16v39l4 4q178 -4 258 -4l264 4l4 -4v-39q0 -14 -16 -16l-53 -4q-62 -4 -87.5 -23.5t-25.5 -62.5v-994q0 -47 26 -74.5t70 -27.5h236q56 0 99.5 20t73 59.5t49 83.5 t36.5 105l61 -10q-43 -198 -53 -342q-189 4 -244 4h-436l-262 -4z" />
<glyph unicode="M" horiz-adv-x="1718" d="M31 0v39q0 15 18 16l55 4q74 6 82 117l99 1000q1 10 1 19q0 31 -12 45q-16 18 -67 22l-60 4q-20 1 -20 14v37l6 6h301l420 -1042q9 -27 16 -27t19 29l434 1040h274l5 -6v-37q0 -14 -23 -14l-55 -4q-78 -7 -78 -76v-10l72 -998q4 -57 21 -86.5t63 -32.5l55 -4 q22 -2 22 -16v-39l-4 -4q-149 4 -229 4l-219 -4l-6 4v39q0 14 18 16l55 4q39 3 55 37q13 29 13 67v15l-57 916h-5l-460 -1084q-11 -22 -29 -22q-22 0 -31 22l-424 1063h-4l-86 -897q-1 -13 -1 -25q0 -86 71 -92l53 -4q21 -2 21 -16v-37l-4 -6q-107 4 -189 4l-184 -4z" />
<glyph unicode="N" horiz-adv-x="1423" d="M23 0v37q0 15 26 18l53 4q58 4 84.5 39t26.5 82v946q-10 44 -51.5 90t-87.5 50q-35 2 -35 16v39l6 4h279l702 -909q74 -96 89 -107q8 -6 13 -6q10 0 12.5 14t2.5 48v776q0 48 -26 82t-85 39l-53 4q-29 3 -29 16v39l8 4q154 -4 228 -4l227 4l4 -4v-39q0 -14 -16 -16 l-55 -4q-57 -4 -84 -37.5t-27 -83.5v-1098q0 -63 -43 -63q-46 0 -82 49l-715 903q-52 67 -69 67q-21 0 -21 -100v-719q0 -50 28 -83.5t85 -37.5l53 -4q16 -2 16 -16v-39l-4 -4q-145 4 -227 4l-229 -4z" />
<glyph unicode="O" horiz-adv-x="1429" d="M76 635q0 198 81.5 361.5t227.5 257.5t326 94q137 0 256 -48.5t205 -135.5t135 -213.5t49 -276.5q0 -310 -176 -502t-467 -192q-132 0 -248 46t-202.5 129.5t-136.5 207.5t-50 272zM264 670q0 -142 42 -262t111 -197t156.5 -119.5t180.5 -42.5q179 0 296 158.5t117 427.5 q0 312 -130 477.5t-353 165.5q-61 0 -119.5 -21.5t-113.5 -69.5t-96 -117t-66 -172t-25 -228z" />
<glyph unicode="P" horiz-adv-x="1067" d="M35 0v39q0 14 16 16l53 4q62 5 87.5 24t25.5 62v1031q0 44 -28 64t-62 22l-80 4q-12 0 -12 12v43l4 2q166 -2 260 -2q31 0 136 9t130 9q91 0 165 -17t121.5 -46t82 -63.5t52 -75t25 -74.5t7.5 -68q0 -56 -13.5 -110.5t-48 -111t-87 -99t-138 -69.5t-192.5 -27 q-92 0 -156 20v-453q0 -45 25 -63t86 -23l55 -4q16 -2 16 -16v-39l-4 -4q-178 4 -258 4l-264 -4zM383 657q38 -10 145 -10q153 0 231.5 74.5t78.5 236.5q0 93 -24 157.5t-67.5 96.5t-90 45t-105.5 13q-54 0 -88 -6t-51 -19.5t-23 -29t-6 -39.5v-519z" />
<glyph unicode="Q" horiz-adv-x="1429" d="M76 635q0 198 81.5 361.5t227.5 257.5t326 94q137 0 256 -48.5t205 -135.5t135 -213.5t49 -276.5q0 -272 -137.5 -456t-374.5 -227q-137 -37 -274 -137q22 3 40 3q75 0 158.5 -26.5t144.5 -57.5t135 -57.5t134 -26.5q49 0 98 18.5t80 56.5l35 -24q-61 -88 -130.5 -128 t-164.5 -40q-74 0 -144 20t-124 49t-105 57.5t-106 48.5t-107 20q-32 0 -77 -29.5t-72 -91.5l-80 41q53 78 147 159.5t200 137.5q-242 27 -399 203t-157 448zM264 670q0 -142 42 -262t111 -197t156.5 -119.5t180.5 -42.5q179 0 296 158.5t117 427.5q0 312 -130 477.5 t-353 165.5q-61 0 -119.5 -21.5t-113.5 -69.5t-96 -117t-66 -172t-25 -228z" />
<glyph unicode="R" horiz-adv-x="1185" d="M35 0v39q0 14 16 16l53 4q64 5 88.5 24.5t24.5 63.5v1029q0 44 -28 64t-62 22l-80 4q-12 0 -12 12v43l4 2q166 -2 260 -2q32 0 132 9t124 9q118 0 202.5 -20t151.5 -82q109 -103 109 -256q0 -76 -29.5 -140.5t-75 -105.5t-87.5 -66t-81 -38l259 -430q47 -79 90 -118.5 t106 -39.5l2 -49q-28 -14 -86 -14q-157 0 -270 182l-219 356q-24 40 -74 59t-170 19v-449q0 -45 24.5 -64t86.5 -24l55 -4q16 -2 16 -16v-39l-4 -4q-178 4 -258 4l-264 -4zM383 666h102q64 0 113.5 8t96 29t77 55t48.5 90t18 131q0 86 -25.5 146.5t-69 90.5t-88.5 42t-98 12 q-102 0 -138 -23t-36 -71v-510z" />
<glyph unicode="S" horiz-adv-x="972" d="M70 338l63 6q61 -291 348 -291q118 0 181 64t63 188q0 52 -12 94.5t-31 71.5t-50 53.5t-61.5 40t-72.5 31.5q-66 26 -113 47.5t-102.5 57.5t-90 74.5t-58 95t-23.5 122.5q0 103 59 186.5t146 126t178 42.5q65 0 111 -6.5t67 -15t53.5 -19t67.5 -15.5q5 -38 10.5 -90.5 t10.5 -91t13 -82.5l-63 -12q-14 47 -26.5 79.5t-35.5 70t-51.5 60t-73.5 37.5t-102 15q-99 0 -162 -66.5t-63 -162.5q0 -179 278 -279q59 -21 104.5 -41.5t96 -54.5t83.5 -73.5t55 -97t22 -126.5q0 -103 -56 -194.5t-154.5 -147t-213.5 -55.5q-93 0 -197 15t-159 15 q-4 111 -39 328z" />
<glyph unicode="T" horiz-adv-x="1161" d="M14 1061q30 133 45 315l56 -8q0 -47 43 -47h866q45 0 45 47l53 8q0 -140 27 -315l-62 -10q-27 124 -53 157t-108 33h-135q-57 0 -78 -17.5t-21 -68.5v-1008q0 -46 25.5 -64.5t87.5 -23.5l53 -4q19 -2 19 -16v-39l-5 -4q-180 4 -260 4l-262 -4l-4 4v39q0 14 16 16l54 4 q63 5 86.5 24.5t23.5 63.5v1014q0 47 -21 63.5t-79 16.5h-170q-85 0 -117 -33.5t-63 -156.5z" />
<glyph unicode="U" horiz-adv-x="1353" d="M0 1282v39l4 4q178 -4 258 -4l264 4l4 -4v-39q0 -14 -16 -16l-53 -4q-63 -5 -88 -26t-25 -65v-620q0 -54 1 -82.5t6.5 -77.5t16 -82t32.5 -72.5t53 -70.5q106 -103 243 -103q72 0 129.5 16.5t96.5 43t67.5 67.5t44 82t25 95.5t12 99t2.5 100.5v600q0 48 -24.5 69.5 t-85.5 25.5l-56 4q-16 2 -16 16v39l4 4q145 -4 225 -4l226 4l4 -4v-39q0 -14 -17 -16l-53 -4q-62 -5 -87.5 -28t-25.5 -67v-563q0 -116 -13 -205.5t-47.5 -171t-91 -134t-148 -83t-214.5 -30.5q-62 0 -121 11.5t-125 45.5t-115 87.5t-81.5 146t-32.5 212.5v688 q0 47 -24.5 66.5t-85.5 24.5l-56 4q-16 2 -16 16z" />
<glyph unicode="V" horiz-adv-x="1273" d="M0 1282v39l4 4q160 -4 240 -4l233 4l4 -4v-39q0 -14 -16 -16l-35 -4q-72 -8 -90 -26q-9 -9 -8 -26q0 -16 8 -39l323 -911h9l320 897q9 25 9 43q1 23 -13 36q-24 24 -87 28l-33 2q-16 0 -16 16v39l4 4q145 -4 225 -4l189 4l4 -4v-39q0 -14 -17 -16q-78 -4 -114.5 -37.5 t-60.5 -96.5l-416 -1109q-19 -48 -50 -48q-30 0 -47 48l-398 1116q-14 38 -22.5 56t-25.5 35.5t-42 25t-65 10.5q-16 2 -16 16z" />
<glyph unicode="W" horiz-adv-x="1892" d="M0 1280v41l4 4q106 -4 184 -4l248 4l4 -4v-39q0 -16 -18 -16l-45 -2q-58 -3 -58 -39q0 -17 13 -54l307 -944h4l217 678q14 44 14 78q0 32 -10 57l-30 95q-7 21 -12 33.5t-17.5 32.5t-27 31.5t-39.5 21.5t-56 12q-25 0 -25 14v41l5 4q114 -4 196 -4l262 4l6 -4v-41 q0 -14 -18 -14l-59 -4q-57 -4 -57 -62q0 -27 12 -65l294 -912h5l305 934q8 25 8 43q0 24 -13 37q-23 23 -85 27l-33 2q-6 0 -11.5 4.5t-5.5 11.5v39l5 4q145 -4 225 -4l188 4l4 -4v-39q0 -16 -16 -16q-78 -4 -115 -37.5t-59 -95.5l-383 -1110q-15 -48 -55 -48q-47 0 -64 50 l-240 727q-20 57 -28 57q-13 0 -29 -51l-244 -733q-14 -50 -57 -50q-48 0 -63 50l-373 1114q-28 83 -49.5 103t-89.5 24q-25 4 -25 14z" />
<glyph unicode="X" horiz-adv-x="1341" d="M6 0v41q0 12 23 14q42 2 79 17.5t67.5 42.5t48.5 47.5t40 50.5l281 383q20 27 20 47q0 26 -28 62l-295 419q-89 126 -183 142q-32 5 -32 14v39l8 6q186 -4 209 -4l245 4q7 -6 9 -6v-39q0 -14 -11 -14l-65 -4q-25 -1 -36 -7.5t-9 -19.5t10 -26.5t25 -37.5l243 -360 q16 -23 25 -23q8 0 27 25l264 358q20 28 27 46t-2 30.5t-38 14.5l-61 4q-14 2 -14 14v41l4 4q180 -4 203 -4l198 4l6 -4v-41q0 -13 -18 -14q-45 -1 -78.5 -11t-61 -32t-43.5 -40t-42 -53l-269 -362q-26 -36 -26 -61t32 -68l316 -430q101 -146 217 -154q14 -1 14 -14v-41 l-4 -4q-110 4 -215 4l-256 -4l-6 4v41q0 13 12 14l41 4q64 6 64 25q0 18 -37 66l-270 385q-16 22 -29 22q-9 0 -31 -29l-270 -370q-19 -28 -25.5 -46.5t6 -33.5t50.5 -19l38 -4q13 -1 13 -14v-41l-6 -4q-199 4 -230 4l-172 -4z" />
<glyph unicode="Y" horiz-adv-x="1175" d="M0 1280v41l4 4q188 -4 215 -4l234 4l4 -4v-39q0 -16 -13 -16l-59 -2q-26 -1 -39 -6t-13 -17.5t5.5 -24.5t19.5 -36l281 -494h4l262 494q18 38 18 55q0 6 -2 9q-7 16 -44 18l-62 4q-10 1 -10 14v41l4 4q159 -4 186 -4l179 4l4 -4v-41q0 -12 -21 -14l-43 -4 q-49 -5 -73 -27.5t-53 -77.5l-289 -522q-15 -27 -15 -87v-401q0 -48 26.5 -70t86.5 -22h55q16 0 16 -16v-39l-4 -4q-178 4 -258 4l-264 -4l-4 4v39q0 16 16 16h54q60 0 86 23.5t26 68.5v383q0 59 -17 88l-299 502q-52 87 -79 113.5t-80 30.5l-25 2q-20 0 -20 14z" />
<glyph unicode="Z" horiz-adv-x="1236" d="M84 31q0 26 16 47l797 1108q16 22 16 37q0 16 -20 16h-473q-45 0 -79.5 -13t-56.5 -31t-41.5 -54t-30 -65.5t-26.5 -80.5l-61 11q33 172 45 342q31 -2 72 -14.5t94 -12.5h657q33 3 75 11.5t54 8.5q28 0 37.5 -4.5t9.5 -15.5q0 -43 -49 -111l-768 -1063q-16 -29 -16 -41 q0 -26 51 -26h477q56 0 99 20t72.5 59.5t48.5 83.5t36 105l64 -10q-42 -176 -56 -342q-204 4 -259 4h-746q-39 0 -39 31z" />
<glyph unicode="[" horiz-adv-x="729" d="M225 -225v1665h430v-62q-74 -5 -120.5 -11t-82.5 -18.5t-53.5 -25.5t-28.5 -40.5t-13.5 -55.5t-2.5 -78v-1083q0 -50 2.5 -78t13 -55.5t28.5 -41t54 -26t82.5 -19t120.5 -12.5v-59h-430z" />
<glyph unicode="\" horiz-adv-x="587" d="M23 1430h90l471 -1528h-90z" />
<glyph unicode="]" horiz-adv-x="729" d="M74 -164q74 5 120.5 11t82 18.5t53.5 26t29 41t13.5 55.5t2.5 78v1083q0 50 -2.5 78t-13.5 55.5t-28 40.5t-53.5 26t-82.5 19t-121 12v60h430v-1665h-430v61z" />
<glyph unicode="^" horiz-adv-x="1060" d="M229 709l260 622h86l259 -622h-93l-211 505l-208 -505h-93z" />
<glyph unicode="_" horiz-adv-x="995" d="M10 -225h977v-90h-977v90z" />
<glyph unicode="`" horiz-adv-x="802" d="M197 1366l4 23q63 47 133 47q15 0 31 -4l143 -258q12 -24 12 -50q0 -8 -9.5 -15t-21.5 -7q-15 0 -59 41z" />
<glyph unicode="a" horiz-adv-x="1101" d="M4 0v43q0 5 4 8.5t8 3.5q32 4 50.5 9t41.5 24.5t39 54.5l359 770q25 54 67 54q61 0 82 -52l299 -759q24 -59 49 -77.5t78 -23.5q17 -2 17 -12v-43l-6 -4q-109 4 -170 4l-230 -4l-4 4v43q0 12 14 12l37 4q43 5 62.5 13t19.5 26q0 7 -4 23l-92 237h-350q-39 0 -45 -22 l-90 -215q-9 -23 -9 -27q0 -19 20 -26.5t64 -10.5l27 -2q4 0 8 -3.5t4 -8.5v-43l-4 -4q-170 4 -209 4l-133 -4zM381 446q0 -8 1.5 -12.5t11 -10t28.5 -5.5h278l-157 403h-4z" />
<glyph unicode="b" horiz-adv-x="997" d="M66 -4v47q0 11 12 12l47 4q45 4 63.5 26t18.5 62v676q0 35 -15 45t-67 15l-47 4q-12 1 -12 8v51l208 -4q171 4 228 4q85 0 150 -14.5t102 -36.5t60 -53t30.5 -59.5t7.5 -61.5q0 -60 -42.5 -120.5t-104.5 -88.5q208 -48 208 -256q0 -102 -101.5 -181t-264.5 -79 q-64 0 -156.5 2t-116.5 2zM365 147q0 -24 2.5 -36t13.5 -27.5t39.5 -22t75.5 -6.5q241 0 241 215q0 106 -50 156.5t-183 50.5h-139v-330zM365 537h139q99 0 145.5 44.5t46.5 137.5q0 43 -12 75t-30.5 49.5t-46 27.5t-52 13t-55.5 3q-65 0 -93.5 -6.5t-35 -18t-6.5 -39.5 v-286z" />
<glyph unicode="c" horiz-adv-x="1007" d="M76 459q0 222 137 363t342 141q93 0 199.5 -16.5t134.5 -16.5q2 -111 24 -262l-53 -6q-20 113 -92.5 177t-200.5 64q-50 0 -92 -10.5t-84 -40t-71.5 -75.5t-47.5 -122t-18 -176q0 -64 9.5 -123t32.5 -116t58.5 -98.5t92 -67t128.5 -25.5q101 0 166.5 33.5t137.5 118.5 l41 -33q-74 -99 -155.5 -143.5t-199.5 -44.5q-114 0 -208.5 41.5t-154.5 110t-93 153t-33 174.5z" />
<glyph unicode="d" horiz-adv-x="1148" d="M66 0v43q0 11 12 12l47 4q46 4 64 22.5t18 65.5v676q0 38 -14 46.5t-68 13.5l-45 4q-14 2 -14 10v45l2 4q180 -4 217 -4q18 0 130 2t140 2q125 0 223.5 -37.5t160.5 -103.5t94 -153.5t32 -190.5q0 -104 -28.5 -185.5t-75 -133t-110.5 -85.5t-129.5 -47.5t-137.5 -13.5 q-95 0 -187.5 2t-111.5 2l-217 -4zM365 147q0 -19 2.5 -31.5t12.5 -25t28 -19.5t49.5 -11.5t77.5 -4.5q88 0 150.5 18t109 59.5t69.5 114.5t23 179q0 50 -3.5 93t-14 91.5t-28 87t-47.5 75t-70 61t-98 39t-130 14.5q-65 0 -98 -14t-33 -50v-676z" />
<glyph unicode="e" horiz-adv-x="929" d="M66 0v45q0 9 12 10l47 4q82 8 82 88v676q0 33 -18 44.5t-64 15.5l-47 4q-12 1 -12 8v47l2 4q160 -4 221 -4h301l207 4l4 -4q2 -90 30 -246l-51 -8q-9 29 -16.5 49t-23.5 48t-34.5 45t-49 29.5t-68.5 12.5h-164q-59 0 -59 -49v-297h153q40 0 56.5 16t23.5 50l12 43 q0 10 13 10h34q5 0 5 -6q-1 -14 -5 -45.5t-6 -58t-2 -48.5q0 -30 6 -82t7 -59l-5 -4h-34q-15 0 -15 10l-10 45q-6 33 -24 48.5t-56 15.5h-153v-314q0 -31 16 -54t43 -23h194q146 0 187 172l51 -6l-41 -236l-4 -4q-121 4 -182 4h-359l-202 -4z" />
<glyph unicode="f" horiz-adv-x="892" d="M59 0v43q0 10 15 12l41 4q47 5 67.5 20t20.5 46v698q0 33 -15.5 44.5t-66.5 15.5l-49 4q-13 1 -13 10v47l7 2q145 -4 206 -4h297l185 4l4 -4q4 -163 16 -242l-51 -6q-7 32 -17.5 59.5t-28.5 56.5t-46.5 45.5t-63.5 16.5h-149q-30 0 -44 -10.5t-14 -36.5v-329h177 q38 0 54.5 15.5t24.5 49.5l11 43q4 12 12 12h35q6 0 6 -6q-12 -104 -12 -153q0 -23 3 -58.5t6 -59.5l3 -24l-4 -4h-37q-9 0 -14 11l-9 45q-8 34 -24.5 48.5t-54.5 14.5h-177v-305q0 -32 20 -46t66 -20l37 -4q15 -2 15 -12v-43l-2 -4q-165 4 -228 4l-205 -4z" />
<glyph unicode="g" horiz-adv-x="1116" d="M78 451q0 159 70.5 276.5t190 176.5t271.5 59q64 0 184 -16.5t144 -16.5q2 -118 27 -262l-54 -6q-47 241 -327 241q-157 0 -243.5 -117.5t-86.5 -308.5q0 -52 13 -110t42.5 -117t71 -105.5t104.5 -76t136 -29.5q114 0 192 78v211q0 32 -20.5 45t-67.5 18l-41 4 q-12 2 -12 13v45l2 2q164 -2 225 -2l154 2l4 -2v-45q0 -11 -13 -13q-41 -7 -57 -19t-16 -48v-154q0 -19 28 -47q-212 -147 -415 -147q-218 0 -362 136.5t-144 334.5z" />
<glyph unicode="h" horiz-adv-x="1208" d="M66 0v43q0 10 14 12l41 4q52 5 70 19.5t18 46.5v698q0 32 -18 43t-70 17l-41 4q-14 2 -14 12v43l4 4q154 -4 217 -4l219 4l2 -4v-43q0 -11 -12 -12l-43 -4q-47 -5 -66.5 -17.5t-19.5 -42.5v-309h477v309q0 32 -19.5 43.5t-68.5 16.5l-41 4q-15 2 -15 12v43l5 4 q152 -4 215 -4l221 4l2 -4v-43q0 -10 -13 -12l-40 -4q-51 -5 -70 -17.5t-19 -42.5v-698q0 -33 19 -47t70 -19l40 -4q15 -2 15 -12v-43l-4 -4q-162 4 -223 4l-213 -4l-3 4v43q0 10 13 12l41 4q47 5 67.5 20t20.5 46v326h-477v-326q0 -33 19 -47t67 -19l43 -4q12 -2 12 -12 v-43l-2 -4q-158 4 -219 4l-217 -4z" />
<glyph unicode="i" horiz-adv-x="571" d="M66 0v43q0 10 14 12l41 4q88 9 88 78v682q0 33 -19.5 46t-68.5 18l-41 4q-14 2 -14 8v47l2 4q162 -4 225 -4l213 4l2 -4v-45q0 -9 -12 -10l-43 -4q-47 -5 -66.5 -19t-19.5 -45v-682q0 -35 19.5 -54.5t66.5 -23.5l43 -4q12 -2 12 -12v-43l-2 -4q-156 4 -219 4l-217 -4z " />
<glyph unicode="j" horiz-adv-x="616" d="M-94 -256q0 30 25 50t49 20q61 0 98 -52q12 -18 23 -26t30 -8q21 0 38.5 8.5t36 35.5t31.5 72t21 124.5t8 185.5v667q0 33 -19 45.5t-69 16.5l-57 4q-12 0 -12 10v45l2 4q176 -4 237 -4l201 4l4 -4v-45q0 -8 -14 -10l-27 -4q-50 -8 -69 -20.5t-19 -41.5v-624 q0 -185 -45 -298.5t-133 -183.5q-87 -73 -217 -73q-40 0 -81.5 28t-41.5 74z" />
<glyph unicode="k" horiz-adv-x="1071" d="M66 0v43q0 10 14 12l41 4q44 4 66 25.5t22 52.5v682q0 33 -19 46t-69 18l-41 4q-14 2 -14 8v47l2 4q168 -4 231 -4l186 4l2 -4v-45q0 -9 -12 -10l-22 -4q-49 -9 -67.5 -21.5t-18.5 -42.5v-309q48 0 85.5 26.5t110.5 104.5q146 160 146 205q0 13 -16 25t-44 16 q-12 1 -12 10v47l2 2q166 -4 225 -4l144 4l6 -2v-47q0 -8 -17 -10q-51 -4 -76 -8.5t-61.5 -25t-71.5 -60.5l-176 -203q-47 -50 -47 -76q0 -12 19 -35l309 -373q26 -32 115 -49l10 -2q14 -2 14 -12v-43l-6 -2q-109 2 -166 2l-125 -2l-2 2v25q0 46 -31 81l-227 283 q-22 29 -47 40t-61 11v-303q0 -33 20.5 -51.5t65.5 -26.5l22 -4q12 -2 12 -12v-43l-2 -4q-129 4 -190 4l-225 -4z" />
<glyph unicode="l" horiz-adv-x="860" d="M66 0v43q0 10 12 12l47 4q50 5 67 18t17 50v692q0 33 -19.5 46t-68.5 18l-41 4q-14 2 -14 12v43l2 4q162 -4 225 -4l213 4l2 -4v-43q0 -11 -12 -12l-43 -4q-48 -4 -67 -18.5t-19 -45.5v-698q0 -28 14 -39.5t43 -11.5h143q45 0 78.5 13.5t56 41.5t36.5 57.5t28 73.5l51 -6 q-37 -147 -43 -250h-502q-6 0 -22.5 -0.5t-63 -1.5t-118.5 -2z" />
<glyph unicode="m" horiz-adv-x="1337" d="M45 0v43q0 10 16 12q61 5 82 21.5t27 75.5l78 688q0 27 -20 34.5t-87 12.5q-16 1 -16 8v45l4 6l268 -4l277 -743l301 743l262 4l4 -4v-39q0 -15 -16 -16q-77 -6 -94 -22q-14 -13 -14 -55q0 -10 1 -22l49 -647q4 -49 25 -64t78 -22q18 -2 18 -12v-43l-4 -4q-117 4 -178 4 l-201 -4l-4 4v43q0 10 14 12l43 4q33 3 44.5 17.5t9.5 48.5l-29 657h-4l-326 -790q-7 -17 -22 -17q-18 0 -25 17l-291 776h-4l-71 -627q0 -47 18.5 -64.5t79.5 -21.5q14 0 14 -12v-43l-2 -4q-96 4 -157 4l-146 -4z" />
<glyph unicode="n" horiz-adv-x="1169" d="M66 0v43q0 9 20 12l41 4q88 9 88 86v668q-18 33 -45 51.5t-80 22.5q-18 0 -18 12v41l4 6l276 -4l469 -637q43 -49 58 -49q14 0 14 53v486q0 33 -23.5 58.5t-66.5 29.5l-43 4q-21 3 -21 10v45l4 4q140 -4 195 -4l182 4l6 -2v-47q0 -8 -14 -10l-41 -4q-88 -9 -88 -88v-764 q0 -56 -41 -56q-23 0 -39.5 9.5t-40.5 35.5l-481 642q-40 49 -55 49q-21 0 -21 -72v-494q0 -35 23.5 -58.5t68.5 -27.5l41 -4q15 -2 15 -12v-43l-2 -4q-126 4 -189 4l-190 -4z" />
<glyph unicode="o" horiz-adv-x="1153" d="M76 455q0 223 144 365.5t360 142.5q134 0 247 -59t182.5 -170.5t69.5 -252.5q0 -101 -34 -191t-97.5 -159.5t-163 -110t-221.5 -40.5q-137 0 -248 60t-175 169t-64 246zM254 479q0 -189 95.5 -310.5t244.5 -121.5q138 0 222.5 109.5t84.5 296.5q0 199 -99 320.5 t-241 121.5q-59 0 -113 -27t-98 -77t-70 -131t-26 -181z" />
<glyph unicode="p" horiz-adv-x="890" d="M66 0v43q0 11 12 12l43 6q47 7 65.5 21.5t18.5 44.5v688q0 45 -22.5 56t-100.5 16q-14 1 -14 10v47l4 2q12 0 95 -2t116 -2q26 0 100.5 2t114.5 2q84 0 147.5 -16t100 -41t59 -59.5t30 -66.5t7.5 -67q0 -41 -8 -80.5t-31.5 -83.5t-61 -76t-102 -53.5t-147.5 -21.5 q-84 0 -130 20v-274q0 -32 19.5 -45t71.5 -21l41 -6q14 -2 14 -12v-43l-2 -4q-164 4 -227 4l-211 -4zM362 459q49 -19 134 -19q92 0 137 57t45 175q0 123 -49.5 169t-143.5 46q-72 0 -97.5 -15.5t-25.5 -56.5v-356z" />
<glyph unicode="q" horiz-adv-x="1136" d="M76 455q0 225 140.5 370.5t354.5 145.5q133 0 245 -61t179.5 -174t67.5 -255q0 -182 -101 -319.5t-285 -174.5q-100 -34 -188 -93q16 2 23 2q61 0 126 -21t111 -46t103.5 -46t105.5 -21q93 0 142 60l28 -21q-48 -70 -104 -102.5t-133 -32.5q-58 0 -112.5 16.5t-96 39.5 t-80.5 46t-81.5 39.5t-84.5 16.5q-27 0 -63 -23t-58 -73l-63 30q38 55 108.5 114.5t151.5 104.5q-191 15 -313.5 148t-122.5 330zM246 479q0 -189 95.5 -311.5t244.5 -122.5q138 0 222.5 110.5t84.5 297.5q0 199 -99.5 322.5t-240.5 123.5q-124 0 -215.5 -112t-91.5 -308z " />
<glyph unicode="r" horiz-adv-x="985" d="M66 0v43q0 11 12 12l43 4q46 4 66 20.5t20 47.5v686q0 40 -30.5 54t-92.5 20q-6 1 -11 5t-5 7v43l4 4q127 -4 209 -4q41 0 107.5 2t88.5 2q154 0 246 -60t92 -177q0 -101 -65.5 -165.5t-159.5 -74.5v-2q48 -4 88 -44.5t61 -92.5l70 -154q34 -75 63 -106t80 -31l13 -43 q-45 -16 -111 -16q-28 0 -55.5 13.5t-48.5 33t-41 46.5t-31.5 47.5t-22.5 41.5l-61 123q-12 28 -26.5 50t-39 46t-63.5 37.5t-88 13.5h-17v-297q0 -31 26.5 -50t66.5 -26l24 -4q15 -2 15 -12v-43l-7 -4q-143 4 -204 4l-213 -4zM360 492h70q122 0 177 47.5t55 169.5 q0 95 -40 136.5t-137 41.5q-74 0 -99.5 -15.5t-25.5 -48.5v-331z" />
<glyph unicode="s" horiz-adv-x="802" d="M80 287l57 4q26 -130 94 -193t160 -63q174 0 174 184q0 43 -14.5 75.5t-48 59.5t-66.5 46t-92 46q-34 16 -58.5 28.5t-62.5 38.5t-62 52.5t-42.5 65.5t-18.5 82q0 80 47 138.5t114 85t142 26.5q72 0 125 -11.5t83 -22.5t48 -11q17 -118 23 -222l-55 -4q-23 97 -84 154 t-137 57q-77 0 -120.5 -42.5t-43.5 -110.5q0 -34 22.5 -67.5t59.5 -60t63 -41.5t53 -28q41 -17 69.5 -31t73 -42.5t72.5 -56.5t49 -70.5t21 -88.5q0 -128 -81 -208.5t-216 -80.5q-94 0 -173.5 17.5t-84.5 17.5q-14 0 -35.5 -5t-32.5 -7q0 98 -22 289z" />
<glyph unicode="t" horiz-adv-x="1001" d="M49 690q17 102 17 281h51q4 -11 18 -20t37 -9h657q23 0 37.5 9t18.5 20h51q0 -169 16 -281l-55 -6q-32 113 -61.5 150.5t-94.5 37.5h-75q-42 0 -59 -14.5t-17 -50.5v-682q0 -33 19.5 -47t68.5 -19l41 -4q14 -2 14 -12v-43l-4 -4q-160 4 -221 4l-215 -4l-2 4v43 q0 11 12 12l41 4q46 5 67 20.5t21 45.5v684q0 34 -17 48.5t-61 14.5h-92q-67 0 -96.5 -37t-61.5 -151z" />
<glyph unicode="u" horiz-adv-x="1144" d="M55 897v45l4 4q154 -4 217 -4l211 4l5 -4v-45q0 -8 -13 -10l-41 -4q-50 -5 -69 -19t-19 -45v-405q0 -64 4.5 -112.5t20 -100.5t41.5 -85.5t72.5 -55t109.5 -21.5q78 0 132 26t81 59.5t41 95.5t16 101.5t2 110.5v387q0 32 -20 45.5t-68 18.5l-41 4q-14 2 -14 10v45l4 4 q123 -4 184 -4l170 4l5 -4v-45q0 -8 -13 -10l-35 -4q-46 -5 -62.5 -19t-16.5 -45v-360q0 -91 -10 -160t-36 -131t-70.5 -102t-115.5 -63t-168 -23q-45 0 -92.5 11.5t-98 41t-90 72.5t-64.5 112t-25 154v448q0 33 -19 46t-70 18l-36 4q-13 2 -13 10z" />
<glyph unicode="v" horiz-adv-x="1073" d="M20 897v47l3 2q131 -4 192 -4l203 4l4 -2v-47q0 -9 -12 -10l-25 -4q-58 -10 -69 -21q-11 -12 -1 -39l248 -630q3 -13 10 -13q9 0 13 13l239 624q11 30 -8 42t-74 24l-18 4q-14 2 -14 10v45l4 4q131 -4 192 -4l146 4l2 -4v-45q0 -8 -19 -10q-91 -8 -121 -86l-309 -744 q-18 -46 -34 -64t-42 -18q-47 0 -75 82l-293 748q-10 26 -19.5 40t-35.5 26.5t-68 15.5q-5 0 -12 3t-7 7z" />
<glyph unicode="w" horiz-adv-x="1572" d="M20 897v45l5 4q84 -4 143 -4l217 4l2 -4v-43q0 -10 -14 -12l-35 -4q-34 -4 -41 -20t6 -40l240 -649l172 473q12 36 12 53q0 29 -4 43l-31 80q-12 31 -38.5 45t-69.5 19q-19 2 -19 10v45l4 4q88 -4 154 -4l219 4l4 -4v-45q0 -8 -14 -10l-47 -4q-43 -4 -43 -42 q0 -18 10 -44l235 -637l242 657q5 14 6.5 27.5t-12.5 24.5t-41 14l-43 4q-12 1 -12 10v45l2 4q120 -4 186 -4l135 4l4 -2v-45q0 -10 -18 -12q-32 -2 -55.5 -11t-37 -25t-20 -27.5t-13.5 -30.5l-267 -736q-29 -82 -86 -82q-66 0 -94 82l-170 480q-15 43 -25 43q-7 0 -20 -37 l-173 -486q-10 -27 -16.5 -41t-23.5 -27.5t-41 -13.5q-38 0 -70 80l-277 754q-23 60 -88 74l-18 4q-21 5 -21 10z" />
<glyph unicode="x" horiz-adv-x="1097" d="M47 0v35q0 17 31 20q32 4 53.5 11t59.5 37.5t81 86.5l185 238q6 9 6 16q0 8 -8 19l-191 278q-53 77 -89 109.5t-89 36.5q-31 2 -31 14v39l4 6q113 -4 174 -4l244 4l6 -6v-37q0 -14 -16 -16l-35 -4q-24 -3 -33.5 -5.5t-16 -12t2.5 -28.5t31 -51l131 -196q14 -21 22 -21 q6 0 21 15l143 200q15 21 23 35t11 29t-7.5 23.5t-34.5 11.5l-35 4q-16 2 -16 14v39l8 6q104 -4 172 -4l176 4l4 -4v-39q0 -14 -26 -16q-61 -4 -97 -28.5t-100 -102.5l-184 -236q-6 -12 -6 -16q0 -8 6 -17l198 -280q69 -97 105 -122t96 -30q17 -2 24 -5t7 -13v-37l-4 -4 q-119 4 -195 4l-227 -4l-4 4v39q0 13 16 16l27 4q18 3 28.5 7.5t13.5 13t2 17t-9.5 24t-17.5 28.5t-25 35l-130 176q-11 17 -20 17q-4 0 -20 -23l-140 -196q-16 -23 -23 -36t-10.5 -28t7 -23.5t34.5 -11.5l31 -4q15 -1 15 -16v-39l-3 -4q-114 4 -186 4l-164 -4z" />
<glyph unicode="y" horiz-adv-x="980" d="M25 897v45l4 4q8 0 82 -2t86 -2q156 0 206 4l3 -2v-47q0 -8 -11 -10l-45 -4q-24 -2 -31.5 -9.5t-4 -17t15.5 -29.5l207 -338h4l190 338q21 37 17.5 45t-39.5 11l-47 4q-9 1 -9 10v47l4 2q12 0 80 -2t78 -2q77 0 139 4l2 -4v-45q0 -8 -14 -10l-35 -4q-47 -6 -64.5 -19 t-42.5 -58l-225 -396v-285q0 -33 19.5 -47t67.5 -19l43 -4q14 -2 14 -12v-43l-4 -4q-156 4 -219 4l-217 -4l-5 4v43q0 10 15 12l41 4q48 4 68 19.5t20 46.5v276l-258 424q-20 31 -46.5 44t-72.5 18q-16 3 -16 10z" />
<glyph unicode="z" horiz-adv-x="933" d="M70 20q0 14 14 35l539 774q14 21 14 29q0 14 -19 14h-309q-50 0 -96 -45t-76 -147l-53 6q28 158 31 279q0 6 8 6q10 -2 34 -15.5t62 -13.5l479 -2q78 16 107 16q45 0 45 -20t-39 -74l-508 -741q-12 -18 -12 -31q0 -20 41 -20h243q83 0 122.5 36t78.5 127l27 60l55 -14 q-52 -177 -65 -279h-693q-30 0 -30 20z" />
<glyph unicode="{" horiz-adv-x="559" d="M80 528v11q137 37 137 229v362q0 157 57 220q57 66 226 69v-26q-59 -14 -101 -78q-32 -56 -32 -170v-344q0 -125 -31 -179.5t-109 -86.5q85 -34 112.5 -97t27.5 -192v-314q0 -121 34 -176q7 -12 15 -22t14 -17t14.5 -13t13 -9.5t13 -7t11 -4t10.5 -3.5l8 -2v-26 q-177 3 -228 69q-55 67 -55 240v334q0 64 -10.5 108.5t-42 79t-84.5 45.5z" />
<glyph unicode="|" horiz-adv-x="419" d="M166 -379v1686h90v-1686h-90z" />
<glyph unicode="}" horiz-adv-x="559" d="M59 -322q62 15 103 78q31 54 31 170v344q0 126 30.5 181.5t108.5 85.5q-85 34 -112 96t-27 192v314q0 120 -35 176q-7 12 -15 22t-14 17t-14.5 13t-13 9.5t-13 7t-11 4t-10.5 2.5l-8 3v26q179 -3 230 -69q53 -68 53 -240v-334q0 -64 10.5 -108.5t42 -79t84.5 -45.5v-11 q-137 -37 -137 -231v-360q0 -156 -55 -220q-57 -66 -228 -69v26z" />
<glyph unicode="~" horiz-adv-x="919" d="M53 428q21 104 96 183t166 79q31 0 73 -21t77.5 -45.5t77.5 -45.5t73 -21q32 0 68 12t75 44.5t60 80.5l35 -12q-22 -77 -57 -130t-72.5 -76t-65 -31.5t-51.5 -8.5q-35 0 -77.5 21t-75.5 45.5t-75 45.5t-77 21q-57 0 -123 -41t-100 -106z" />
<glyph unicode="&#xa1;" horiz-adv-x="464" d="M121 -317q0 76 23 206t30 189q11 97 18.5 183.5t10.5 134t4 55.5q4 41 29 41q24 0 28 -27q1 -13 5.5 -78.5t11.5 -152t14 -156.5q7 -72 29 -194t22 -201q0 -75 -34.5 -112.5t-75.5 -37.5q-46 0 -80.5 39t-34.5 111zM127 793q0 44 32.5 76t76.5 32t76 -32t32 -76 t-32 -76.5t-76 -32.5t-76.5 32.5t-32.5 76.5z" />
<glyph unicode="&#xa2;" horiz-adv-x="897" d="M94 571q0 198 103 328t258 149v148h69v-146q128 -6 202.5 -66.5t74.5 -141.5q0 -44 -23 -67t-57 -23q-35 0 -60.5 17.5t-29.5 53.5q-3 29 -7.5 49t-15.5 44.5t-32 40t-52 21.5v-766q2 0 8 -0.5t9 -0.5q127 0 229 149l37 -28q-60 -106 -129 -155t-154 -55v-147h-69v148 q-165 15 -263 137.5t-98 310.5zM254 616q0 -142 56 -246.5t145 -141.5v750q-89 -17 -145 -114.5t-56 -247.5z" />
<glyph unicode="&#xa3;" horiz-adv-x="897" d="M35 14q0 61 99 112q20 18 32 32q106 113 106 387v53h-135v82h135v16q0 122 36 209t116 166q104 107 258 107q19 0 43.5 -5t51 -15t44 -28.5t17.5 -42.5q0 -36 -22 -56.5t-58 -20.5q-14 0 -27 6t-20 11.5t-23 19.5q-49 45 -96 45q-69 0 -119.5 -86.5t-50.5 -210.5v-115 h266v-82h-266v-10q0 -311 -129 -408l-10 -7q7 1 18 1q82 0 129.5 -15t87.5 -42q59 -39 119 -39q49 0 106 24.5t91 71.5l38 -27q-29 -79 -98 -125.5t-172 -46.5q-35 0 -73 11.5t-59.5 22t-61.5 32.5q-93 53 -152 53q-46 0 -66 -16.5t-20 -36.5q0 -37 -25 -56.5t-57 -19.5 q-20 0 -36.5 15t-16.5 34z" />
<glyph unicode="&#xa4;" horiz-adv-x="897" d="M53 279l111 88q-80 95 -80 223q0 133 80 225l-107 84l76 82l94 -104q99 71 219 71q126 0 224 -76l94 113l80 -84l-113 -90q78 -93 78 -221q0 -121 -76 -219l107 -90l-74 -78l-94 104q-101 -76 -226 -76q-121 0 -221 74l-88 -108zM207 592q0 -116 66.5 -195.5t172.5 -79.5 q104 0 171 80.5t67 192.5q0 115 -68.5 193.5t-164.5 78.5q-105 0 -174.5 -79.5t-69.5 -190.5z" />
<glyph unicode="&#xa5;" horiz-adv-x="897" d="M-14 1137v37l2 4q40 -7 188 -7q122 0 176 7l4 -4v-35q0 -19 -14 -19h-27q-49 0 -49 -26q0 -7 21 -64l207 -436l192 436q21 51 21 66q0 26 -50 26h-32q-13 0 -13 15v37l4 4q56 -7 160 -7q80 0 148 7l2 -4v-35q0 -17 -19 -17h-12q-81 0 -125 -96l-210 -475h255v-82h-280 v-129h280v-80h-280v-113q0 -48 25.5 -69t86.5 -21h53q6 0 11.5 -4.5t5.5 -11.5v-39l-4 -4q-178 4 -258 4l-262 -4l-5 4v39q0 16 15 16h55q60 0 85.5 22.5t25.5 67.5v113h-283v80h283v129h-283v82h271l-228 475q-24 49 -48 71.5t-61 22.5h-14q-20 7 -20 17z" />
<glyph unicode="&#xa6;" horiz-adv-x="419" d="M166 330h98v-742h-98v742zM166 639v741h98v-741h-98z" />
<glyph unicode="&#xa7;" horiz-adv-x="954" d="M100 565q0 178 121 275q-51 62 -51 192q0 69 40.5 141t119 123.5t170.5 51.5q116 0 204.5 -74t88.5 -182q0 -31 -23.5 -54.5t-52.5 -23.5q-26 0 -44 10t-26 24.5t-11 25.5t-3 20q0 38 14 55q8 16 8 27q0 4 -4 15t-14.5 27.5t-26 30.5t-42.5 24.5t-60 10.5 q-85 0 -143 -64.5t-58 -146.5q0 -67 37 -104t117 -74q42 -19 73.5 -35t75 -41.5t75.5 -50.5t66 -60.5t55.5 -73t35.5 -85.5t14 -100q0 -178 -125 -279q70 -60 70 -197q0 -50 -28 -106t-73 -103.5t-110 -78.5t-133 -31q-116 0 -203.5 74t-87.5 184q0 32 23 55t51 23 q34 0 55 -18t26 -34t5 -30q0 -25 -13.5 -48.5t-13.5 -33.5q0 -5 4.5 -16.5t16 -28t28 -31t44.5 -25t61 -10.5q75 0 135.5 58t60.5 155q0 56 -29.5 102.5t-80.5 71.5q-246 120 -342.5 221t-96.5 242zM190 664q0 -98 82.5 -197.5t190.5 -149.5q155 -74 233 -116q70 61 70 149 q0 48 -19.5 95t-45.5 82.5t-74 75t-81.5 62.5t-94 55t-85.5 44t-80 37q-18 8 -26 12q-70 -58 -70 -149z" />
<glyph unicode="&#xa8;" horiz-adv-x="768" d="M113 1178q0 38 27 65t65 27t66 -27t28 -65t-28 -66.5t-66 -28.5t-65 28t-27 67zM440 1178q0 38 28 65t67 27q38 0 65 -27t27 -65q0 -39 -27 -67t-65 -28t-66.5 28.5t-28.5 66.5z" />
<glyph unicode="&#xa9;" horiz-adv-x="1296" d="M70 627q0 117 46 224t123.5 184.5t184.5 123t225 45.5q157 0 290 -77t210.5 -210t77.5 -290t-77.5 -290.5t-210.5 -211.5t-290 -78q-158 0 -291.5 78.5t-210.5 212t-77 289.5zM133 627q0 -139 68.5 -257.5t187.5 -187.5t260 -69q139 0 257.5 68.5t187.5 187t69 258.5 t-68.5 258.5t-187 187t-258.5 68.5q-141 0 -260 -68.5t-187.5 -187t-68.5 -258.5zM344 629q0 120 85.5 212.5t223.5 92.5q81 0 133 -14.5t78 -14.5l25 -160l-55 -8q-5 28 -8.5 43t-11.5 36.5t-19.5 32t-30 22t-45.5 16t-64 4.5q-32 0 -63 -12t-62.5 -39.5t-51 -83 t-19.5 -131.5q0 -109 54 -182.5t153 -73.5q114 0 186 104l43 -29q-35 -54 -96.5 -92.5t-139.5 -38.5q-142 0 -228.5 93.5t-86.5 222.5z" />
<glyph unicode="&#xaa;" horiz-adv-x="608" d="M55 877q0 122 211 176l119 30q0 55 -10 91t-28.5 52t-35 21.5t-37.5 5.5q-51 0 -80.5 -15t-29.5 -40q0 -19 4 -27t4 -24q0 -15 -13.5 -29t-39.5 -14q-23 0 -38 14t-15 37q0 58 71.5 104t141.5 46q42 0 77 -10t68.5 -34t52.5 -72.5t19 -117.5v-153q0 -117 28 -117 q15 0 25 10l20 -33q-16 -17 -42.5 -31t-53.5 -14q-35 0 -58 24.5t-28 55.5q-54 -47 -89 -63.5t-85 -16.5q-66 0 -112 40t-46 104zM162 883q0 -36 21.5 -60t70.5 -24q31 0 60.5 15.5t70.5 51.5v162q-128 -33 -175.5 -65t-47.5 -80z" />
<glyph unicode="&#xab;" horiz-adv-x="1097" d="M139 401v78q213 150 451 400v-105q-141 -206 -295 -334q150 -116 295 -334v-104q-249 286 -451 399zM512 401v78q213 152 446 400v-105q-137 -206 -292 -334q147 -111 292 -334v-104q-246 284 -446 399z" />
<glyph unicode="&#xac;" horiz-adv-x="1146" d="M49 731v90h1051v-549h-111v459h-940z" />
<glyph unicode="&#xad;" horiz-adv-x="716" d="M68 479q0 25 16.5 50.5t34.5 25.5h469q28 0 28 -37q0 -19 -18 -46.5t-37 -27.5h-463q-13 0 -21.5 10.5t-8.5 24.5z" />
<glyph unicode="&#xae;" horiz-adv-x="1296" d="M70 627q0 117 46 224t123.5 184.5t184.5 123t225 45.5q157 0 290 -77t210.5 -210t77.5 -290t-77.5 -290.5t-210.5 -211.5t-290 -78q-158 0 -291.5 78.5t-210.5 212t-77 289.5zM133 627q0 -139 68.5 -257.5t187.5 -187.5t260 -69q139 0 257.5 68.5t187.5 187t69 258.5 t-68.5 258.5t-187 187t-258.5 68.5q-141 0 -260 -68.5t-187.5 -187t-68.5 -258.5zM424 342v25q0 10 20 10h25q9 0 12.5 3t3.5 13v457q0 22 -8 22l-33 -2q-20 3 -20 13v22q72 10 235 10q55 0 95.5 -15t61 -39t29.5 -48.5t9 -50.5q0 -30 -12 -57t-29 -44t-34.5 -30t-29.5 -19 l-12 -6l99 -168q38 -63 82 -63v-27q-27 -8 -48 -8q-90 0 -127 78l-98 162q-11 8 -55 8v-195q0 -9 2 -12.5t12 -3.5h25q22 0 22 -12v-23q-85 4 -114 4zM590 631q25 0 42 1.5t42 8.5t40 20t26.5 39t11.5 62q0 54 -27 86.5t-78 32.5q-22 0 -57 -7v-243z" />
<glyph unicode="&#xaf;" horiz-adv-x="813" d="M121 1114q0 20 13.5 40t31.5 20h500q28 0 28 -29q0 -20 -15 -40t-34 -20h-500q-24 0 -24 29z" />
<glyph unicode="&#xb0;" horiz-adv-x="546" d="M70 1075q0 85 59.5 145t144.5 60t144 -60t59 -145t-59 -144t-144 -59t-144.5 59t-59.5 144zM137 1073q0 -57 37.5 -100t99.5 -43q60 0 98 43.5t38 99.5q0 57 -36 103.5t-100 46.5q-63 0 -100 -45t-37 -105z" />
<glyph unicode="&#xb1;" horiz-adv-x="1079" d="M135 37v100h809v-100h-809zM135 600v100h352v357h105v-357h352v-100h-352v-356h-105v356h-352z" />
<glyph unicode="&#xb2;" horiz-adv-x="628" d="M92 745q0 67 50.5 130.5t136.5 130.5q77 62 107 107.5t30 123.5q0 64 -35.5 93.5t-73.5 29.5q-60 0 -85 -17.5t-25 -42.5q0 -9 5 -25t5 -24q0 -22 -19.5 -35.5t-37.5 -13.5q-20 0 -37 14.5t-17 34.5q0 52 55.5 105t163.5 53q41 0 78 -8.5t70.5 -27t53.5 -53t20 -81.5 q0 -66 -44.5 -121.5t-138.5 -122.5q-135 -96 -135 -184h166q29 0 54.5 25t37 48.5t27.5 63.5l49 -10q-30 -100 -39 -193h-422z" />
<glyph unicode="&#xb3;" horiz-adv-x="628" d="M80 809q0 15 16 28t33 13q28 0 53 -29q13 -19 35 -28t68 -9q18 0 41 7t50.5 23.5t45.5 52.5t18 85q0 33 -12 58t-29.5 38.5t-41 22t-41 10.5t-35.5 2q-9 0 -41 -4l-4 49q69 9 109 48.5t40 101.5q0 43 -24 62.5t-58 19.5q-23 0 -47.5 -7t-44.5 -24t-21 -41 q-1 -17 -4 -27.5t-15 -21t-34 -10.5q-18 0 -29.5 8.5t-14.5 16t-3 12.5q0 15 13 37.5t38.5 47t75 41.5t111.5 17q80 0 127 -32t47 -89q0 -80 -105 -139q61 -5 112.5 -52t51.5 -128q0 -104 -86.5 -170t-212.5 -66q-62 0 -122 23t-60 53z" />
<glyph unicode="&#xb4;" horiz-adv-x="698" d="M182 1135q0 25 13 47l163 258q12 4 29 4q58 0 100 -37q7 -7 13 -10l6 -23l-236 -223q-41 -41 -59 -41q-10 0 -19.5 8t-9.5 17z" />
<glyph unicode="&#xb5;" horiz-adv-x="993" d="M90 887l168 18q6 -137 6 -203v-401q0 -233 142 -233q79 0 150.5 40t107.5 95v684l153 18v-651q0 -60 1 -85t5.5 -52.5t15.5 -36t31 -8.5q19 0 35 22t35 68l49 -23q-33 -85 -72.5 -124.5t-113.5 -39.5q-58 0 -98.5 43.5t-40.5 104.5q-66 -72 -137 -110t-160 -38 q-33 0 -66 15.5t-51 36.5q-9 0 -17 -6t-8 -13q0 -72 33 -199t33 -165q0 -60 -23.5 -91.5t-60.5 -31.5q-32 0 -71.5 38.5t-39.5 94.5q0 49 16.5 155.5t16.5 174.5q0 28 -9 126t-9 164v385q0 25 -5.5 82t-10.5 101z" />
<glyph unicode="&#xb6;" horiz-adv-x="1232" d="M55 899q0 193 109 308.5t307 115.5q89 0 204 -5t130 -5l141 6l228 4v-43q0 -14 -13 -14h-59q-53 0 -67.5 -26t-14.5 -101v-1434q0 -58 7.5 -84t23 -34t51.5 -9h59q13 0 13 -14v-43h-674v43q0 14 12 14h59q51 1 65.5 25t14.5 104v758q-52 -25 -157 -25q-56 0 -111.5 12 t-116 45t-106.5 82.5t-75.5 132t-29.5 187.5zM772 -293q0 -131 62 -131q41 0 53 28t12 99v1436q0 43 -4 69t-13.5 37t-17.5 13.5t-24 3.5q-19 0 -32.5 -8t-20 -18.5t-10.5 -30t-4.5 -34t-0.5 -38.5v-1426z" />
<glyph unicode="&#xb7;" horiz-adv-x="512" d="M145 528q0 43 33.5 78t77.5 35q42 0 76.5 -34t34.5 -79t-32 -77.5t-79 -32.5q-49 0 -80 32.5t-31 77.5z" />
<glyph unicode="&#xb8;" horiz-adv-x="1107" d="M424 -336l20 45q77 -28 119 -28q50 0 86.5 22t36.5 61q0 32 -25 52t-61 20q-52 0 -92 -12l-12 12l79 178h70l-49 -118q24 6 53 6q63 0 104.5 -35t41.5 -92q0 -65 -62.5 -105.5t-157.5 -40.5q-46 0 -77 8t-74 27z" />
<glyph unicode="&#xb9;" horiz-adv-x="628" d="M125 1294q125 47 237 115h33v-535q0 -33 15 -54t36 -21h58q12 0 12 -11v-43q-106 3 -176 3l-201 -3v43q0 3 5.5 7t11.5 4h71q26 0 45 21t19 54v312q0 51 -5.5 68.5t-25.5 17.5q-19 0 -56.5 -11t-60.5 -22z" />
<glyph unicode="&#xba;" horiz-adv-x="714" d="M80 879q0 131 75 205.5t207 74.5q73 0 127.5 -22t86 -61t46.5 -85t15 -100q0 -113 -74 -191.5t-211 -78.5q-115 0 -193.5 74t-78.5 184zM199 899q0 -85 45.5 -153t130.5 -68q23 0 46 8t46.5 26.5t38 56t14.5 89.5q0 120 -46 185t-124 65q-73 0 -112 -60t-39 -149z" />
<glyph unicode="&#xbb;" horiz-adv-x="1097" d="M98 2v104q136 204 293 334q-149 113 -293 334v105q246 -285 447 -400v-78q-219 -156 -447 -399zM467 2v104q141 206 295 334q-150 116 -295 334v105q251 -288 451 -400v-78q-216 -152 -451 -399z" />
<glyph unicode="&#xbc;" horiz-adv-x="1351" d="M119 1194q125 47 237 115h33v-535q0 -33 15 -54.5t36 -21.5h58q12 0 12 -10v-43q-106 2 -176 2l-201 -2v43q0 3 5.5 6.5t11.5 3.5h71q26 0 45 21.5t19 54.5v311q0 51 -5.5 68.5t-25.5 17.5q-19 0 -56.5 -10.5t-60.5 -21.5zM152 -111l938 1342l86 -17l-940 -1341zM770 74 q75 88 107 200q32 126 32 222h72q0 -74 -25 -224q-8 -40 -26 -84.5t-33 -68.5h180v192l101 51v-243h104v-60h-104v-129q0 -30 8.5 -40.5t36.5 -10.5h32q11 0 11 -8v-37l-144 2l-139 -2v37q0 8 10 8h37q29 0 38 9t9 42v129h-299z" />
<glyph unicode="&#xbd;" horiz-adv-x="1351" d="M123 1194q125 47 237 115h33v-535q0 -33 15 -54.5t36 -21.5h58q12 0 12 -10v-43q-106 2 -176 2l-201 -2v43q0 3 5.5 6.5t11.5 3.5h71q26 0 45 21.5t19 54.5v311q0 51 -5.5 68.5t-25.5 17.5q-19 0 -56.5 -10.5t-60.5 -21.5zM152 -111l938 1342l86 -17l-940 -1341z M825 -162q0 67 50 130t137 130q77 62 107 108t30 124q0 64 -35.5 93.5t-73.5 29.5q-60 0 -85 -17.5t-25 -42.5q0 -9 5 -25t5 -24q0 -22 -19.5 -35.5t-37.5 -13.5q-20 0 -37 14.5t-17 34.5q0 52 56 105t164 53q57 0 103.5 -14t82 -54t35.5 -102q0 -66 -44.5 -121.5 t-138.5 -122.5q-135 -96 -135 -184h166q29 0 54.5 25t37 48.5t27.5 63.5l49 -10q-30 -100 -39 -193h-422z" />
<glyph unicode="&#xbe;" horiz-adv-x="1351" d="M76 705q0 15 16 27.5t33 12.5q29 0 53 -28q13 -19 35 -28t68 -9q18 0 41 7t50.5 23.5t45.5 52.5t18 85q0 33 -12.5 58t-29.5 38.5t-40.5 22t-41.5 10.5t-36 2q-8 0 -40 -4l-5 49q69 9 109.5 48.5t40.5 101.5q0 43 -24 62t-58 19q-38 0 -75 -18.5t-38 -52.5 q-1 -17 -4 -27.5t-15 -21.5t-34 -11q-18 0 -29.5 8.5t-14.5 16t-3 12.5q0 15 13 37.5t38.5 47.5t75 42t111.5 17q80 0 127 -32t47 -89q0 -81 -105 -140q61 -5 112.5 -52t51.5 -128q0 -104 -86.5 -169.5t-212.5 -65.5q-62 0 -122 23t-60 53zM152 -111l938 1342l86 -17 l-940 -1341zM778 78q74 88 107 201q33 130 33 221h71q0 -80 -24 -224q-18 -85 -60 -153h180v192l101 52v-244h104v-60h-104v-129q0 -30 8.5 -40.5t36.5 -10.5h33q10 0 10 -8v-37l-144 2l-139 -2v37q0 8 10 8h37q29 0 38 9t9 42v129h-299z" />
<glyph unicode="&#xbf;" horiz-adv-x="829" d="M76 -160q0 47 14.5 90t33 72.5t52.5 63t56.5 51t60.5 45.5q87 65 106 102q37 70 37 150v90q0 20 27 20q26 0 26 -20v-94q0 -43 -3.5 -73.5t-15.5 -76.5t-41.5 -91.5t-76.5 -88.5q-65 -61 -94 -112t-29 -120q0 -102 59.5 -179t145.5 -77t142.5 35t56.5 82q0 38 -12 53 q-13 16 -13 50q0 33 24 52t56 19t58 -20t26 -68q0 -100 -104 -184q-93 -80 -254 -80q-156 0 -247 84.5t-91 224.5zM354 793q0 44 32.5 76t76.5 32t76 -32t32 -76t-32 -76.5t-76 -32.5t-76.5 32.5t-32.5 76.5z" />
<glyph unicode="&#xc0;" horiz-adv-x="1423" d="M4 0v39q0 14 16 16q75 5 117 33.5t82 120.5l455 1065q18 41 32.5 57.5t36.5 16.5q20 0 31.5 -14t24.5 -48l420 -1110q22 -60 56 -87t95 -32l23 -2q20 -2 20 -16v-39l-6 -4q-158 4 -238 4l-272 -4l-2 4v39q0 15 14 16l58 4q59 5 80 25.5t6 62.5l-125 347h-426 q-36 0 -50 -7.5t-22 -27.5l-119 -297q-16 -41 5 -70t77 -33l60 -4q16 -2 16 -16v-39l-4 -4q-223 4 -272 4l-185 -4zM426 1583l156 92l247 -172q31 -22 31 -43q0 -30 -31 -30q-28 0 -88 24zM487 607q-7 -16 5 -21.5t47 -5.5h356l-199 546h-4z" />
<glyph unicode="&#xc1;" horiz-adv-x="1423" d="M4 0v39q0 14 16 16q75 5 117 33.5t82 120.5l455 1065q18 41 32.5 57.5t36.5 16.5q20 0 31.5 -14t24.5 -48l420 -1110q22 -60 56 -87t95 -32l23 -2q20 -2 20 -16v-39l-6 -4q-158 4 -238 4l-272 -4l-2 4v39q0 15 14 16l58 4q59 5 80 25.5t6 62.5l-125 347h-426 q-36 0 -50 -7.5t-22 -27.5l-119 -297q-16 -41 5 -70t77 -33l60 -4q16 -2 16 -16v-39l-4 -4q-223 4 -272 4l-185 -4zM487 607q-7 -16 5 -21.5t47 -5.5h356l-199 546h-4zM569 1460q0 22 31 43l254 176l127 -106l-295 -119q-57 -24 -88 -24q-29 0 -29 30z" />
<glyph unicode="&#xc2;" horiz-adv-x="1423" d="M4 0v39q0 14 16 16q75 5 117 33.5t82 120.5l455 1065q18 41 32.5 57.5t36.5 16.5q20 0 31.5 -14t24.5 -48l420 -1110q22 -60 56 -87t95 -32l23 -2q20 -2 20 -16v-39l-6 -4q-158 4 -238 4l-272 -4l-2 4v39q0 15 14 16l58 4q59 5 80 25.5t6 62.5l-125 347h-426 q-36 0 -50 -7.5t-22 -27.5l-119 -297q-16 -41 5 -70t77 -33l60 -4q16 -2 16 -16v-39l-4 -4q-223 4 -272 4l-185 -4zM485 1456q90 68 203 193h88q83 -101 207 -193l-33 -43q-124 58 -217 127q-104 -76 -219 -127zM487 607q-7 -16 5 -21.5t47 -5.5h356l-199 546h-4z" />
<glyph unicode="&#xc3;" horiz-adv-x="1423" d="M4 0v39q0 14 16 16q75 5 117 33.5t82 120.5l455 1065q18 41 32.5 57.5t36.5 16.5q20 0 31.5 -14t24.5 -48l420 -1110q22 -60 56 -87t95 -32l23 -2q20 -2 20 -16v-39l-6 -4q-158 4 -238 4l-272 -4l-2 4v39q0 15 14 16l58 4q59 5 80 25.5t6 62.5l-125 347h-426 q-36 0 -50 -7.5t-22 -27.5l-119 -297q-16 -41 5 -70t77 -33l60 -4q16 -2 16 -16v-39l-4 -4q-223 4 -272 4l-185 -4zM446 1444q22 93 60.5 137.5t103.5 44.5q67 0 148 -57q59 -45 106 -45q36 0 59 22t44 84l49 -12q-37 -184 -178 -184q-52 0 -131 53q-72 45 -111 45t-62 -23 t-38 -75zM487 607q-7 -16 5 -21.5t47 -5.5h356l-199 546h-4z" />
<glyph unicode="&#xc4;" horiz-adv-x="1423" d="M4 0v39q0 14 16 16q75 5 117 33.5t82 120.5l455 1065q18 41 32.5 57.5t36.5 16.5q20 0 31.5 -14t24.5 -48l420 -1110q22 -60 56 -87t95 -32l23 -2q20 -2 20 -16v-39l-6 -4q-158 4 -238 4l-272 -4l-2 4v39q0 15 14 16l58 4q59 5 80 25.5t6 62.5l-125 347h-426 q-36 0 -50 -7.5t-22 -27.5l-119 -297q-16 -41 5 -70t77 -33l60 -4q16 -2 16 -16v-39l-4 -4q-223 4 -272 4l-185 -4zM406 1403q0 38 28 65t66 27t65 -27t27 -65t-27 -65t-65 -27t-66 27t-28 65zM487 607q-7 -16 5 -21.5t47 -5.5h356l-199 546h-4zM860 1405q0 37 28 64.5 t66 27.5t65.5 -27.5t27.5 -64.5q0 -38 -27.5 -66t-65.5 -28t-66 28t-28 66z" />
<glyph unicode="&#xc5;" horiz-adv-x="1423" d="M4 0v39q0 14 16 16q75 5 117 33.5t82 120.5l455 1065q8 18 12 25q-60 11 -100.5 58.5t-40.5 108.5q0 70 51.5 120t122.5 50t123.5 -49.5t52.5 -120.5q0 -51 -29 -93.5t-77 -62.5q9 -21 10 -24l420 -1110q22 -60 56 -87t95 -32l23 -2q20 -2 20 -16v-39l-6 -4 q-158 4 -238 4l-272 -4l-2 4v39q0 15 14 16l58 4q59 5 80 25.5t6 62.5l-125 347h-426q-36 0 -50 -7.5t-22 -27.5l-119 -297q-16 -41 5 -70t77 -33l60 -4q16 -2 16 -16v-39l-4 -4q-223 4 -272 4l-185 -4zM487 607q-7 -16 5 -21.5t47 -5.5h356l-199 546h-4zM610 1466 q0 -44 32.5 -79t78.5 -35t78 35t32 79q0 47 -33 81t-77 34q-47 0 -79 -34.5t-32 -80.5z" />
<glyph unicode="&#xc6;" horiz-adv-x="1781" d="M0 2v39q0 16 20 16h46q45 0 69 16.5t53 69.5l547 1039q8 13 8 28q0 25 -20 40.5t-45 15.5h-66q-14 0 -14 14v41l2 2l356 -2l158 2h504l29 -287l-56 -6q-12 76 -64 143.5t-124 67.5h-291q-38 0 -56 -14.5t-18 -50.5v-426h207q51 0 72 21.5t31 68.5l14 61q4 17 14 17h45 q9 0 9 -9q-2 -21 -7 -60.5t-7.5 -71.5t-2.5 -62q0 -57 17 -197l-7 -6h-47q-12 0 -16 14l-12 64q-8 46 -30.5 68t-72.5 22h-207v-533q0 -39 18.5 -53t55.5 -14h311q95 0 147 67t79 191l53 -10l-51 -328h-537l-156 2l-264 -4l-4 4v37q0 18 17 18h55q60 0 85 22.5t25 67.5v398 h-364l-217 -406q-5 -10 -11.5 -22t-9 -16.5t-4.5 -10.5t-2 -10q0 -13 15 -18t53 -5h59q12 0 12 -12v-43l-4 -4q-131 4 -211 4l-186 -4zM549 625h323v553q0 35 -2 47z" />
<glyph unicode="&#xc7;" horiz-adv-x="1318" d="M76 645q0 147 54.5 279t144.5 224t209 146t245 54q109 0 195.5 -22t148 -45.5t105.5 -25.5q9 -127 45 -317l-62 -8q-103 342 -454 342q-51 0 -109.5 -20.5t-120 -67.5t-111 -113t-81 -167t-31.5 -220q0 -91 18 -179.5t56.5 -168.5t93 -140.5t133 -96.5t170.5 -36 q143 0 255 52.5t220 171.5l47 -31q-196 -256 -479 -275l-39 -94q28 7 53 7q63 0 104.5 -35t41.5 -92q0 -65 -62 -105.5t-157 -40.5q-74 0 -152 35l21 45q72 -26 101 -28q8 -1 17 -1q49 0 86 22.5t37 61.5q0 32 -25 52t-61 20q-52 0 -92 -12l-12 12l68 152q-122 4 -225.5 44 t-175 104t-122 148t-74.5 177.5t-24 191.5z" />
<glyph unicode="&#xc8;" horiz-adv-x="1124" d="M25 0v41q0 13 16 14l61 4q59 4 82 24t23 64v1027q0 47 -22.5 65.5t-82.5 22.5l-61 4q-16 1 -16 14v41l4 2q207 -2 262 -2h517q55 0 96 8q7 0 8 -6q17 -90 44 -297l-59 -10q-20 62 -35 96t-41 67t-64.5 46.5t-94.5 13.5h-216q-38 0 -55.5 -14.5t-17.5 -50.5v-435h260 q52 0 74.5 20.5t27.5 65.5l6 52q0 6 4.5 11t10.5 5h45q8 0 8 -8q-8 -108 -8 -176l8 -187l-6 -6h-47q-7 0 -12 4.5t-5 9.5l-4 54q-4 44 -26.5 61t-75.5 17h-260v-515q0 -39 18 -53t55 -14h279q201 0 276 268l64 -10q-39 -165 -76 -342q-164 4 -262 4h-436l-262 -4zM346 1581 l156 92l248 -172q30 -21 30 -43q0 -31 -30 -31q-26 0 -88 25z" />
<glyph unicode="&#xc9;" horiz-adv-x="1124" d="M25 0v41q0 13 16 14l61 4q59 4 82 24t23 64v1027q0 47 -22.5 65.5t-82.5 22.5l-61 4q-16 1 -16 14v41l4 2q207 -2 262 -2h517q55 0 96 8q7 0 8 -6q17 -90 44 -297l-59 -10q-20 62 -35 96t-41 67t-64.5 46.5t-94.5 13.5h-216q-38 0 -55.5 -14.5t-17.5 -50.5v-435h260 q52 0 74.5 20.5t27.5 65.5l6 52q0 6 4.5 11t10.5 5h45q8 0 8 -8q-8 -108 -8 -176l8 -187l-6 -6h-47q-7 0 -12 4.5t-5 9.5l-4 54q-4 44 -26.5 61t-75.5 17h-260v-515q0 -39 18 -53t55 -14h279q201 0 276 268l64 -10q-39 -165 -76 -342q-164 4 -262 4h-436l-262 -4zM432 1460 q0 22 31 43l254 176l127 -106l-295 -119q-57 -24 -88 -24q-29 0 -29 30z" />
<glyph unicode="&#xca;" horiz-adv-x="1124" d="M25 0v41q0 13 16 14l61 4q59 4 82 24t23 64v1027q0 47 -22.5 65.5t-82.5 22.5l-61 4q-16 1 -16 14v41l4 2q207 -2 262 -2h517q55 0 96 8q7 0 8 -6q17 -90 44 -297l-59 -10q-20 62 -35 96t-41 67t-64.5 46.5t-94.5 13.5h-216q-38 0 -55.5 -14.5t-17.5 -50.5v-435h260 q52 0 74.5 20.5t27.5 65.5l6 52q0 6 4.5 11t10.5 5h45q8 0 8 -8q-8 -108 -8 -176l8 -187l-6 -6h-47q-7 0 -12 4.5t-5 9.5l-4 54q-4 44 -26.5 61t-75.5 17h-260v-515q0 -39 18 -53t55 -14h279q201 0 276 268l64 -10q-39 -165 -76 -342q-164 4 -262 4h-436l-262 -4zM358 1456 q90 68 203 193h88q83 -101 207 -193l-33 -43q-124 58 -217 127q-104 -76 -219 -127z" />
<glyph unicode="&#xcb;" horiz-adv-x="1124" d="M25 0v41q0 13 16 14l61 4q59 4 82 24t23 64v1027q0 47 -22.5 65.5t-82.5 22.5l-61 4q-16 1 -16 14v41l4 2q207 -2 262 -2h517q55 0 96 8q7 0 8 -6q17 -90 44 -297l-59 -10q-20 62 -35 96t-41 67t-64.5 46.5t-94.5 13.5h-216q-38 0 -55.5 -14.5t-17.5 -50.5v-435h260 q52 0 74.5 20.5t27.5 65.5l6 52q0 6 4.5 11t10.5 5h45q8 0 8 -8q-8 -108 -8 -176l8 -187l-6 -6h-47q-7 0 -12 4.5t-5 9.5l-4 54q-4 44 -26.5 61t-75.5 17h-260v-515q0 -39 18 -53t55 -14h279q201 0 276 268l64 -10q-39 -165 -76 -342q-164 4 -262 4h-436l-262 -4zM334 1536 q0 38 27 65t65 27t65 -27t27 -65t-27 -65t-65 -27t-65 27t-27 65zM721 1538q0 37 27.5 64.5t64.5 27.5q38 0 66 -27.5t28 -64.5q0 -38 -28 -66t-66 -28q-37 0 -64.5 28t-27.5 66z" />
<glyph unicode="&#xcc;" horiz-adv-x="600" d="M35 1282v39l4 4q204 -4 260 -4q62 0 262 4l4 -4v-39q0 -14 -16 -16l-53 -4q-62 -5 -87.5 -24t-25.5 -62v-1031q0 -45 25.5 -63t87.5 -23l53 -4q16 -2 16 -16v-39l-4 -4q-97 4 -260 4q-160 0 -260 -4l-4 4v39q0 14 14 16l55 4q63 4 87 23.5t24 62.5v1031q0 45 -25 63 t-86 23l-55 4q-16 2 -16 16zM47 1581l156 92l248 -172q30 -21 30 -43q0 -31 -30 -31q-27 0 -89 25z" />
<glyph unicode="&#xcd;" horiz-adv-x="600" d="M35 1282v39l4 4q204 -4 260 -4q62 0 262 4l4 -4v-39q0 -14 -16 -16l-53 -4q-62 -5 -87.5 -24t-25.5 -62v-1031q0 -45 25.5 -63t87.5 -23l53 -4q16 -2 16 -16v-39l-4 -4q-97 4 -260 4q-160 0 -260 -4l-4 4v39q0 14 14 16l55 4q63 4 87 23.5t24 62.5v1031q0 45 -25 63 t-86 23l-55 4q-16 2 -16 16zM145 1458q0 22 31 43l254 176l127 -106l-295 -119q-60 -25 -88 -25q-29 0 -29 31z" />
<glyph unicode="&#xce;" horiz-adv-x="600" d="M35 1282v39l4 4q204 -4 260 -4q62 0 262 4l4 -4v-39q0 -14 -16 -16l-53 -4q-62 -5 -87.5 -24t-25.5 -62v-1031q0 -45 25.5 -63t87.5 -23l53 -4q16 -2 16 -16v-39l-4 -4q-97 4 -260 4q-160 0 -260 -4l-4 4v39q0 14 14 16l55 4q63 4 87 23.5t24 62.5v1031q0 45 -25 63 t-86 23l-55 4q-16 2 -16 16zM51 1456q90 68 203 193h88q83 -101 207 -193l-33 -43q-124 58 -217 127q-104 -76 -219 -127z" />
<glyph unicode="&#xcf;" horiz-adv-x="600" d="M14 1534q0 38 27 65t65 27t65.5 -27t27.5 -65t-27.5 -65t-65.5 -27t-65 27t-27 65zM35 1282v39l4 4q204 -4 260 -4q62 0 262 4l4 -4v-39q0 -14 -16 -16l-53 -4q-62 -5 -87.5 -24t-25.5 -62v-1031q0 -45 25.5 -63t87.5 -23l53 -4q16 -2 16 -16v-39l-4 -4q-97 4 -260 4 q-160 0 -260 -4l-4 4v39q0 14 14 16l55 4q63 4 87 23.5t24 62.5v1031q0 45 -25 63t-86 23l-55 4q-16 2 -16 16zM401 1536q0 37 28 64.5t65 27.5q38 0 66 -27.5t28 -64.5q0 -38 -28 -66t-66 -28q-37 0 -65 28t-28 66z" />
<glyph unicode="&#xd0;" horiz-adv-x="1427" d="M35 0v37q0 16 14 18l62 4q55 4 80.5 24.5t25.5 68.5v436h-182v80h182v503q0 54 -20.5 70t-85.5 21l-58 4q-18 2 -18 16v39l4 4q202 -4 258 -4q66 0 168.5 2t167.5 2q145 0 276 -55t225 -148.5t149.5 -221.5t55.5 -269q0 -105 -22 -193.5t-60 -153t-91 -115t-111.5 -82.5 t-126 -53t-130.5 -29.5t-128 -8.5q-114 0 -211.5 2t-161.5 2q-168 0 -258 -4zM383 147q0 -36 14.5 -51.5t60.5 -22.5t148 -7q92 0 168 13.5t148 49t121 92.5t78.5 148.5t29.5 212.5q0 99 -19 191.5t-64 180.5t-112 153.5t-170 105.5t-231 40q-44 0 -70 -2t-52.5 -9.5 t-38 -23.5t-11.5 -42v-508h207v-80h-207v-441z" />
<glyph unicode="&#xd1;" horiz-adv-x="1423" d="M23 0v37q0 15 26 18l53 4q58 4 84.5 39t26.5 82v946q-10 44 -51.5 90t-87.5 50q-35 2 -35 16v39l6 4h279l702 -909q74 -96 89 -107q8 -6 13 -6q10 0 12.5 14t2.5 48v776q0 48 -26 82t-85 39l-53 4q-29 3 -29 16v39l8 4q154 -4 228 -4l227 4l4 -4v-39q0 -14 -16 -16 l-55 -4q-57 -4 -84 -37.5t-27 -83.5v-1098q0 -63 -43 -63q-46 0 -82 49l-715 903q-52 67 -69 67q-21 0 -21 -100v-719q0 -50 28 -83.5t85 -37.5l53 -4q16 -2 16 -16v-39l-4 -4q-145 4 -227 4l-229 -4zM436 1440q22 93 60.5 137.5t103.5 44.5q67 0 148 -57q59 -45 106 -45 q36 0 58.5 22t43.5 84l50 -12q-37 -184 -179 -184q-52 0 -131 53q-72 45 -110 45q-39 0 -62.5 -23t-38.5 -75z" />
<glyph unicode="&#xd2;" horiz-adv-x="1429" d="M76 635q0 198 81.5 361.5t227.5 257.5t326 94q137 0 256 -48.5t205 -135.5t135 -213.5t49 -276.5q0 -310 -176 -502t-467 -192q-132 0 -248 46t-202.5 129.5t-136.5 207.5t-50 272zM264 670q0 -142 42 -262t111 -197t156.5 -119.5t180.5 -42.5q179 0 296 158.5t117 427.5 q0 312 -130 477.5t-353 165.5q-61 0 -119.5 -21.5t-113.5 -69.5t-96 -117t-66 -172t-25 -228zM467 1585l156 92l247 -172q31 -22 31 -43q0 -30 -31 -30q-28 0 -88 24z" />
<glyph unicode="&#xd3;" horiz-adv-x="1429" d="M76 635q0 198 81.5 361.5t227.5 257.5t326 94q137 0 256 -48.5t205 -135.5t135 -213.5t49 -276.5q0 -310 -176 -502t-467 -192q-132 0 -248 46t-202.5 129.5t-136.5 207.5t-50 272zM264 670q0 -142 42 -262t111 -197t156.5 -119.5t180.5 -42.5q179 0 296 158.5t117 427.5 q0 312 -130 477.5t-353 165.5q-61 0 -119.5 -21.5t-113.5 -69.5t-96 -117t-66 -172t-25 -228zM508 1460q0 22 31 43l254 176l127 -106l-295 -119q-57 -24 -88 -24q-29 0 -29 30z" />
<glyph unicode="&#xd4;" horiz-adv-x="1429" d="M76 635q0 198 81.5 361.5t227.5 257.5t326 94q137 0 256 -48.5t205 -135.5t135 -213.5t49 -276.5q0 -310 -176 -502t-467 -192q-132 0 -248 46t-202.5 129.5t-136.5 207.5t-50 272zM264 670q0 -142 42 -262t111 -197t156.5 -119.5t180.5 -42.5q179 0 296 158.5t117 427.5 q0 312 -130 477.5t-353 165.5q-61 0 -119.5 -21.5t-113.5 -69.5t-96 -117t-66 -172t-25 -228zM463 1456q90 68 203 193h88q83 -101 207 -193l-33 -43q-124 58 -217 127q-104 -76 -219 -127z" />
<glyph unicode="&#xd5;" horiz-adv-x="1429" d="M76 635q0 198 81.5 361.5t227.5 257.5t326 94q137 0 256 -48.5t205 -135.5t135 -213.5t49 -276.5q0 -310 -176 -502t-467 -192q-132 0 -248 46t-202.5 129.5t-136.5 207.5t-50 272zM264 670q0 -142 42 -262t111 -197t156.5 -119.5t180.5 -42.5q179 0 296 158.5t117 427.5 q0 312 -130 477.5t-353 165.5q-61 0 -119.5 -21.5t-113.5 -69.5t-96 -117t-66 -172t-25 -228zM422 1440q22 93 60.5 137.5t103.5 44.5q66 0 147 -57q59 -45 107 -45q36 0 58.5 22t43.5 84l49 -12q-37 -184 -178 -184q-52 0 -131 53q-72 45 -111 45t-62 -23t-38 -75z" />
<glyph unicode="&#xd6;" horiz-adv-x="1429" d="M76 635q0 198 81.5 361.5t227.5 257.5t326 94q137 0 256 -48.5t205 -135.5t135 -213.5t49 -276.5q0 -310 -176 -502t-467 -192q-132 0 -248 46t-202.5 129.5t-136.5 207.5t-50 272zM223 1409q0 38 28 65t66 27t65.5 -27t27.5 -65t-27.5 -65t-65.5 -27t-66 27t-28 65z M264 670q0 -142 42 -262t111 -197t156.5 -119.5t180.5 -42.5q179 0 296 158.5t117 427.5q0 312 -130 477.5t-353 165.5q-61 0 -119.5 -21.5t-113.5 -69.5t-96 -117t-66 -172t-25 -228zM1012 1403q0 38 27 65t65 27t65 -27t27 -65t-27 -65t-65 -27t-65 27t-27 65z" />
<glyph unicode="&#xd7;" horiz-adv-x="1079" d="M217 221l252 250l-252 252l74 72l250 -252l250 252l71 -72l-252 -252l252 -250l-71 -71l-250 249l-250 -249z" />
<glyph unicode="&#xd8;" horiz-adv-x="1429" d="M76 635q0 198 81.5 361.5t227.5 257.5t326 94q234 0 405 -135l129 159l60 -49l-132 -162q183 -189 183 -487q0 -310 -176 -502t-467 -192q-227 0 -394 127l-153 -189l-60 53l153 188q-183 183 -183 476zM264 670q0 -222 99 -384l672 828q-128 164 -351 164 q-61 0 -119.5 -21.5t-113.5 -69.5t-96 -117t-66 -172t-25 -228zM410 220q68 -82 158.5 -126.5t185.5 -44.5q179 0 296 158.5t117 427.5q0 251 -87 411z" />
<glyph unicode="&#xd9;" horiz-adv-x="1353" d="M0 1282v39l4 4q178 -4 258 -4l264 4l4 -4v-39q0 -14 -16 -16l-53 -4q-63 -5 -88 -26t-25 -65v-620q0 -54 1 -82.5t6.5 -77.5t16 -82t32.5 -72.5t53 -70.5q106 -103 243 -103q72 0 129.5 16.5t96.5 43t67.5 67.5t44 82t25 95.5t12 99t2.5 100.5v600q0 48 -24.5 69.5 t-85.5 25.5l-56 4q-16 2 -16 16v39l4 4q145 -4 225 -4l226 4l4 -4v-39q0 -14 -17 -16l-53 -4q-62 -5 -87.5 -28t-25.5 -67v-563q0 -116 -13 -205.5t-47.5 -171t-91 -134t-148 -83t-214.5 -30.5q-62 0 -121 11.5t-125 45.5t-115 87.5t-81.5 146t-32.5 212.5v688 q0 47 -24.5 66.5t-85.5 24.5l-56 4q-16 2 -16 16zM410 1583l155 92l248 -172q31 -22 31 -43q0 -30 -31 -30q-28 0 -88 24z" />
<glyph unicode="&#xda;" horiz-adv-x="1353" d="M0 1282v39l4 4q178 -4 258 -4l264 4l4 -4v-39q0 -14 -16 -16l-53 -4q-63 -5 -88 -26t-25 -65v-620q0 -54 1 -82.5t6.5 -77.5t16 -82t32.5 -72.5t53 -70.5q106 -103 243 -103q72 0 129.5 16.5t96.5 43t67.5 67.5t44 82t25 95.5t12 99t2.5 100.5v600q0 48 -24.5 69.5 t-85.5 25.5l-56 4q-16 2 -16 16v39l4 4q145 -4 225 -4l226 4l4 -4v-39q0 -14 -17 -16l-53 -4q-62 -5 -87.5 -28t-25.5 -67v-563q0 -116 -13 -205.5t-47.5 -171t-91 -134t-148 -83t-214.5 -30.5q-62 0 -121 11.5t-125 45.5t-115 87.5t-81.5 146t-32.5 212.5v688 q0 47 -24.5 66.5t-85.5 24.5l-56 4q-16 2 -16 16zM545 1458q0 23 30 43l254 176l127 -106l-294 -119q-60 -25 -89 -25q-28 0 -28 31z" />
<glyph unicode="&#xdb;" horiz-adv-x="1353" d="M0 1282v39l4 4q178 -4 258 -4l264 4l4 -4v-39q0 -14 -16 -16l-53 -4q-63 -5 -88 -26t-25 -65v-620q0 -54 1 -82.5t6.5 -77.5t16 -82t32.5 -72.5t53 -70.5q106 -103 243 -103q72 0 129.5 16.5t96.5 43t67.5 67.5t44 82t25 95.5t12 99t2.5 100.5v600q0 48 -24.5 69.5 t-85.5 25.5l-56 4q-16 2 -16 16v39l4 4q145 -4 225 -4l226 4l4 -4v-39q0 -14 -17 -16l-53 -4q-62 -5 -87.5 -28t-25.5 -67v-563q0 -116 -13 -205.5t-47.5 -171t-91 -134t-148 -83t-214.5 -30.5q-62 0 -121 11.5t-125 45.5t-115 87.5t-81.5 146t-32.5 212.5v688 q0 47 -24.5 66.5t-85.5 24.5l-56 4q-16 2 -16 16zM467 1456q90 68 203 193h88q83 -101 207 -193l-33 -43q-124 58 -217 127q-104 -76 -219 -127z" />
<glyph unicode="&#xdc;" horiz-adv-x="1353" d="M20 1282v39l5 2q155 -2 235 -2q37 0 94.5 1t94.5 1q12 0 12 -20v-21q0 -16 -17 -16q-58 -9 -78 -32t-20 -69v-618q0 -65 2.5 -104t12 -95t33.5 -101.5t63 -84.5q103 -103 243 -103q72 0 129 16.5t96 43t67.5 67.5t44.5 82t25.5 95.5t12 99t2.5 100.5v602q0 46 -22 68 t-76 33q-16 0 -16 16v23q0 8 6 13t12 5q24 0 62 -1t81 -1l205 2l4 -2v-39q0 -10 -11.5 -13t-39.5 -3q-111 0 -111 -95v-571q0 -116 -13 -205.5t-47.5 -171t-91.5 -134.5t-148.5 -83.5t-215.5 -30.5q-61 0 -119.5 11.5t-125 46t-115 88t-81 146t-32.5 212.5v692q0 29 -12 49 t-34 29.5t-44.5 13t-52.5 3.5q-19 0 -19 16zM475 1407q0 38 27 65t65 27t64 -27t26 -65t-26 -65t-64 -27t-65 27t-27 65zM770 1407q0 37 26.5 64.5t63.5 27.5q38 0 66 -27.5t28 -64.5q0 -38 -28 -66t-66 -28q-37 0 -63.5 28t-26.5 66z" />
<glyph unicode="&#xdd;" horiz-adv-x="1175" d="M0 1280v41l4 4q188 -4 215 -4l234 4l4 -4v-39q0 -16 -13 -16l-59 -2q-26 -1 -39 -6t-13 -17.5t5.5 -24.5t19.5 -36l281 -494h4l262 494q23 49 16 64.5t-44 17.5l-62 4q-10 1 -10 14v41l4 4q159 -4 186 -4l179 4l4 -4v-41q0 -12 -21 -14l-43 -4q-49 -5 -73 -27.5 t-53 -77.5l-289 -522q-15 -27 -15 -87v-401q0 -48 26.5 -70t86.5 -22h55q16 0 16 -16v-39l-4 -4q-178 4 -258 4l-264 -4l-4 4v39q0 16 16 16h54q60 0 86 23.5t26 68.5v383q0 59 -17 88l-299 502q-52 87 -79 113.5t-80 30.5l-25 2q-20 0 -20 14zM453 1460q0 23 30 43l254 176 l127 -106l-295 -119q-57 -24 -88 -24q-28 0 -28 30z" />
<glyph unicode="&#xde;" horiz-adv-x="1071" d="M18 0v39q0 14 17 16l53 4q64 5 88.5 25t24.5 63v1031q0 44 -25.5 61.5t-87.5 22.5l-53 4q-17 2 -17 16v39l5 2q178 -2 258 -2l264 2l4 -2v-39q0 -14 -17 -16l-55 -4q-62 -5 -86 -23t-24 -61v-115q74 4 184 4q109 0 192 -24.5t130.5 -61.5t77.5 -88t40 -96.5t10 -94.5 t-14 -100t-50 -104t-88.5 -94t-137 -67t-189.5 -26q-108 0 -155 15v-179q0 -46 25 -64.5t85 -23.5l55 -4q17 -2 17 -16v-39l-4 -4q-178 4 -258 4l-264 -4zM367 385q30 -10 145 -10q47 0 88.5 8.5t83 31t71 58t48 94.5t18.5 135q0 71 -17 125.5t-43.5 87t-63.5 53.5t-73 28.5 t-75 7.5q-31 0 -91 -7t-91 -16v-596z" />
<glyph unicode="&#xdf;" horiz-adv-x="1110" d="M31 0v43q0 10 10 12l35 4q78 9 78 91v337q0 89 14.5 160t48.5 131t88 100t135.5 62.5t188.5 22.5q71 0 177 -15.5t167 -36.5v-32l-225 -320q-7 -7 -7 -14q0 -8 11 -8q131 -6 202.5 -82.5t71.5 -188.5q0 -115 -80 -200.5t-219 -85.5q-45 0 -100 12t-74 12q-6 0 -24 -4 t-25 -4q0 42 -25 225l53 4q21 -94 61 -140t112 -46q66 0 113.5 51.5t47.5 169.5q0 19 -6 44.5t-24.5 59.5t-47 61.5t-80.5 47t-118 19.5q-2 0 -27 -5l-8 37q217 287 217 328q0 17 -61 34t-111 17q-289 0 -289 -379v-374q0 -78 78 -91l25 -4q12 -1 12 -12v-43l-2 -4 q-132 4 -191 4l-200 -4z" />
<glyph unicode="&#xe0;" horiz-adv-x="1101" d="M4 0v43q0 5 4 8.5t8 3.5q32 4 50.5 9t41.5 24.5t39 54.5l361 775q10 23 30 38t35 15q62 0 82 -51l299 -764q25 -60 49.5 -78t77.5 -23q17 -2 17 -12v-43l-6 -4q-109 4 -170 4l-230 -4l-4 4v43q0 12 14 12l37 4q43 5 62.5 13t19.5 26q0 7 -4 23l-92 237h-350 q-39 0 -45 -22l-90 -215q-9 -23 -9 -27q0 -19 20 -26.5t64 -10.5l27 -2q4 0 8 -3.5t4 -8.5v-43l-4 -4q-170 4 -209 4l-133 -4zM381 446q0 -8 1.5 -12.5t11 -10t28.5 -5.5h278l-161 403h-2zM430 1311l4 22q63 47 133 47q15 0 31 -4l143 -258q13 -26 13 -49q0 -8 -9.5 -15 t-21.5 -7q-16 0 -59 40z" />
<glyph unicode="&#xe1;" horiz-adv-x="1101" d="M4 0v43q0 5 4 8.5t8 3.5q32 4 50.5 9t41.5 24.5t39 54.5l361 775q10 23 30 38t35 15q62 0 82 -51l299 -764q25 -60 49.5 -78t77.5 -23q17 -2 17 -12v-43l-6 -4q-109 4 -170 4l-230 -4l-4 4v43q0 12 14 12l37 4q43 5 62.5 13t19.5 26q0 7 -4 23l-92 237h-350 q-39 0 -45 -22l-90 -215q-9 -23 -9 -27q0 -19 20 -26.5t64 -10.5l27 -2q4 0 8 -3.5t4 -8.5v-43l-4 -4q-170 4 -209 4l-133 -4zM381 446q0 -8 1.5 -12.5t11 -10t28.5 -5.5h278l-161 403h-2zM446 1059q0 25 13 47l164 258q12 4 28 4q59 0 101 -37q8 -8 12 -10l6 -23l-235 -223 q-41 -41 -60 -41q-10 0 -19.5 8t-9.5 17z" />
<glyph unicode="&#xe2;" horiz-adv-x="1101" d="M4 0v43q0 5 4 8.5t8 3.5q32 4 50.5 9t41.5 24.5t39 54.5l361 775q10 23 30 38t35 15q62 0 82 -51l299 -764q25 -60 49.5 -78t77.5 -23q17 -2 17 -12v-43l-6 -4q-109 4 -170 4l-230 -4l-4 4v43q0 12 14 12l37 4q43 5 62.5 13t19.5 26q0 7 -4 23l-92 237h-350 q-39 0 -45 -22l-90 -215q-9 -23 -9 -27q0 -19 20 -26.5t64 -10.5l27 -2q4 0 8 -3.5t4 -8.5v-43l-4 -4q-170 4 -209 4l-133 -4zM328 1069q149 165 211 264h102q67 -109 207 -264l-43 -29q-139 102 -217 185q-95 -98 -219 -185zM381 446q0 -8 1.5 -12.5t11 -10t28.5 -5.5h278 l-161 403h-2z" />
<glyph unicode="&#xe3;" horiz-adv-x="1101" d="M4 0v43q0 5 4 8.5t8 3.5q32 4 50.5 9t41.5 24.5t39 54.5l361 775q10 23 30 38t35 15q62 0 82 -51l299 -764q25 -60 49.5 -78t77.5 -23q17 -2 17 -12v-43l-6 -4q-109 4 -170 4l-230 -4l-4 4v43q0 12 14 12l37 4q43 5 62.5 13t19.5 26q0 7 -4 23l-92 237h-350 q-39 0 -45 -22l-90 -215q-9 -23 -9 -27q0 -19 20 -26.5t64 -10.5l27 -2q4 0 8 -3.5t4 -8.5v-43l-4 -4q-170 4 -209 4l-133 -4zM307 1090q22 93 60.5 137.5t103.5 44.5t147 -58q59 -45 107 -45q35 0 58 22.5t44 84.5l50 -12q-38 -185 -179 -185q-51 0 -131 54q-72 45 -110 45 q-39 0 -62.5 -23.5t-38.5 -75.5zM381 446q0 -8 1.5 -12.5t11 -10t28.5 -5.5h278l-161 403h-2z" />
<glyph unicode="&#xe4;" horiz-adv-x="1101" d="M4 0v43q0 5 4 8.5t8 3.5q32 4 50.5 9t41.5 24.5t39 54.5l361 775q10 23 30 38t35 15q62 0 82 -51l299 -764q25 -60 49.5 -78t77.5 -23q17 -2 17 -12v-43l-6 -4q-109 4 -170 4l-230 -4l-4 4v43q0 12 14 12l37 4q43 5 62.5 13t19.5 26q0 7 -4 23l-92 237h-350 q-39 0 -45 -22l-90 -215q-9 -23 -9 -27q0 -19 20 -26.5t64 -10.5l27 -2q4 0 8 -3.5t4 -8.5v-43l-4 -4q-170 4 -209 4l-133 -4zM332 1174q0 38 27 65t65 27t66 -27t28 -65t-28 -66.5t-66 -28.5t-65 28t-27 67zM381 446q0 -8 1.5 -12.5t11 -10t28.5 -5.5h278l-161 403h-2z M659 1174q0 38 28 65t67 27q38 0 65 -27t27 -65q0 -39 -27 -67t-65 -28t-66.5 28.5t-28.5 66.5z" />
<glyph unicode="&#xe5;" horiz-adv-x="1101" d="M4 0v43q0 5 4 8.5t8 3.5q32 4 50.5 9t41.5 24.5t39 54.5l361 775q10 23 30 38t35 15q62 0 82 -51l299 -764q25 -60 49.5 -78t77.5 -23q17 -2 17 -12v-43l-6 -4q-109 4 -170 4l-230 -4l-4 4v43q0 12 14 12l37 4q43 5 62.5 13t19.5 26q0 7 -4 23l-92 237h-350 q-39 0 -45 -22l-90 -215q-9 -23 -9 -27q0 -19 20 -26.5t64 -10.5l27 -2q4 0 8 -3.5t4 -8.5v-43l-4 -4q-170 4 -209 4l-133 -4zM381 446q0 -8 1.5 -12.5t11 -10t28.5 -5.5h278l-161 403h-2zM412 1190q0 70 51.5 120t122.5 50t123.5 -49.5t52.5 -120.5q0 -69 -51.5 -119.5 t-124.5 -50.5q-71 0 -122.5 50t-51.5 120zM477 1190q0 -44 32.5 -79.5t78.5 -35.5t78 35.5t32 79.5q0 47 -33 81t-77 34q-47 0 -79 -34.5t-32 -80.5z" />
<glyph unicode="&#xe6;" horiz-adv-x="1355" d="M10 0v43q0 10 13 12q88 8 122 70q77 125 199 362q150 300 150 357q0 19 -14.5 29t-53.5 14q-12 1 -12 8v47l4 4q180 -4 336 -4h280l207 4l4 -4q2 -84 31 -246l-51 -8q-9 29 -16.5 49t-23.5 48t-35 45t-49.5 29.5t-68.5 12.5h-143q-60 0 -60 -47v-319h125q39 0 55.5 15.5 t24.5 49.5l10 43q3 13 13 13h35q6 0 6 -6q-1 -15 -5 -47t-6 -58.5t-2 -48.5q0 -35 13 -141l-4 -4h-37q-10 0 -15 10l-8 45q-8 34 -25 48.5t-55 14.5h-125v-319q0 -51 60 -51h145q86 0 131 48t72 136l53 -6q-40 -162 -43 -248h-491l-203 -4l-2 4v45q0 9 10 10l35 4 q48 6 66 20.5t18 45.5v317h-229q-47 0 -60 -26l-147 -295q-13 -26 1 -36.5t66 -25.5l21 -4q12 -4 12 -12v-43l-2 -4q-168 4 -207 4l-123 -4zM440 516q0 -10 41 -10h199v295q0 86 -45 86q-15 0 -33.5 -22.5t-36.5 -59.5l-121 -279q-4 -8 -4 -10z" />
<glyph unicode="&#xe7;" horiz-adv-x="1007" d="M76 459q0 222 137.5 367t341.5 145q93 0 199.5 -18.5t134.5 -18.5q2 -111 24 -262l-53 -6q-20 113 -92.5 179t-200.5 66q-63 0 -116.5 -20t-102 -66t-76.5 -134.5t-28 -211.5q0 -81 17.5 -154.5t54.5 -138t103.5 -103t155.5 -38.5q101 0 166.5 33.5t137.5 118.5l41 -33 q-71 -96 -149.5 -140.5t-188.5 -47.5l-33 -80q24 6 53 6q63 0 104.5 -35t41.5 -92q0 -65 -62.5 -105.5t-157.5 -40.5q-46 0 -77 8t-74 27l20 45q77 -28 119 -28q50 0 86.5 22t36.5 61q0 32 -25 52t-61 20q-52 0 -92 -12l-12 12l63 142q-135 12 -236.5 86.5t-150.5 177.5 t-49 217z" />
<glyph unicode="&#xe8;" horiz-adv-x="929" d="M66 0v45q0 10 12 10l47 4q47 4 64.5 18.5t17.5 45.5v698q0 34 -18.5 47.5t-63.5 16.5l-47 4q-12 2 -12 8v45l2 4l204 -4h148h381q2 -103 28 -246l-51 -6q-9 35 -20.5 61t-32.5 56.5t-56 47.5t-81 17h-164q-31 0 -45 -9t-14 -34v-303h153q40 0 56.5 16t23.5 50l12 43 q0 10 13 10h34q5 0 5 -6q-1 -14 -5 -45.5t-6 -58t-2 -48.5q0 -30 6 -82t7 -59l-5 -4h-34q-15 0 -15 10l-10 45q-6 33 -24 48.5t-56 15.5h-153v-342q0 -28 14.5 -38.5t44.5 -10.5h176q86 0 130 47.5t73 138.5l51 -6q-37 -147 -43 -250h-541l-202 -4zM301 1331l4 23 q63 47 133 47q15 0 31 -4l143 -258q13 -26 13 -49q0 -8 -9.5 -15.5t-21.5 -7.5q-15 0 -59 41z" />
<glyph unicode="&#xe9;" horiz-adv-x="929" d="M66 0v45q0 10 12 10l47 4q47 4 64.5 18.5t17.5 45.5v698q0 34 -18.5 47.5t-63.5 16.5l-47 4q-12 2 -12 8v45l2 4l204 -4h148h381q2 -103 28 -246l-51 -6q-9 35 -20.5 61t-32.5 56.5t-56 47.5t-81 17h-164q-31 0 -45 -9t-14 -34v-303h153q40 0 56.5 16t23.5 50l12 43 q0 10 13 10h34q5 0 5 -6q-1 -14 -5 -45.5t-6 -58t-2 -48.5q0 -30 6 -82t7 -59l-5 -4h-34q-15 0 -15 10l-10 45q-6 33 -24 48.5t-56 15.5h-153v-342q0 -28 14.5 -38.5t44.5 -10.5h176q86 0 130 47.5t73 138.5l51 -6q-37 -147 -43 -250h-541l-202 -4zM354 1053q0 25 13 47 l163 258q12 4 29 4q58 0 100 -37q7 -7 13 -10l6 -23l-236 -223q-41 -41 -59 -41q-10 0 -19.5 8t-9.5 17z" />
<glyph unicode="&#xea;" horiz-adv-x="929" d="M66 0v45q0 10 12 10l47 4q47 4 64.5 18.5t17.5 45.5v698q0 34 -18.5 47.5t-63.5 16.5l-47 4q-12 2 -12 8v45l2 4l204 -4h148h381q2 -103 28 -246l-51 -6q-9 35 -20.5 61t-32.5 56.5t-56 47.5t-81 17h-164q-31 0 -45 -9t-14 -34v-303h153q40 0 56.5 16t23.5 50l12 43 q0 10 13 10h34q5 0 5 -6q-1 -14 -5 -45.5t-6 -58t-2 -48.5q0 -30 6 -82t7 -59l-5 -4h-34q-15 0 -15 10l-10 45q-6 33 -24 48.5t-56 15.5h-153v-342q0 -28 14.5 -38.5t44.5 -10.5h176q86 0 130 47.5t73 138.5l51 -6q-37 -147 -43 -250h-541l-202 -4zM240 1067 q149 165 211 264h102q67 -109 207 -264l-43 -29q-139 102 -217 185q-95 -98 -219 -185z" />
<glyph unicode="&#xeb;" horiz-adv-x="929" d="M66 0v45q0 10 12 10l47 4q47 4 64.5 18.5t17.5 45.5v698q0 34 -18.5 47.5t-63.5 16.5l-47 4q-12 2 -12 8v45l2 4l204 -4h148h381q2 -103 28 -246l-51 -6q-9 35 -20.5 61t-32.5 56.5t-56 47.5t-81 17h-164q-31 0 -45 -9t-14 -34v-303h153q40 0 56.5 16t23.5 50l12 43 q0 10 13 10h34q5 0 5 -6q-1 -14 -5 -45.5t-6 -58t-2 -48.5q0 -30 6 -82t7 -59l-5 -4h-34q-15 0 -15 10l-10 45q-6 33 -24 48.5t-56 15.5h-153v-342q0 -28 14.5 -38.5t44.5 -10.5h176q86 0 130 47.5t73 138.5l51 -6q-37 -147 -43 -250h-541l-202 -4zM246 1176q0 38 27 65 t65 27t66 -27t28 -65t-28 -66.5t-66 -28.5t-65 28t-27 67zM573 1176q0 38 28 65t67 27q38 0 65 -27t27 -65q0 -39 -27 -67t-65 -28t-66.5 28.5t-28.5 66.5z" />
<glyph unicode="&#xec;" horiz-adv-x="571" d="M61 1296l5 23q63 47 133 47q14 0 30 -4l144 -258q12 -24 12 -49q0 -8 -9.5 -15.5t-21.5 -7.5q-15 0 -59 41zM66 0v43q0 12 14 12l41 4q88 9 88 78v682q0 33 -20 47t-68 19l-41 4q-14 0 -14 8v45l2 4q162 -4 225 -4l213 4l2 -4v-43q0 -10 -12 -10l-43 -4 q-47 -4 -66.5 -19.5t-19.5 -46.5v-682q0 -36 19 -55t67 -23l43 -4q12 0 12 -12v-43l-2 -4q-156 4 -219 4l-217 -4z" />
<glyph unicode="&#xed;" horiz-adv-x="571" d="M66 0v43q0 12 14 12l41 4q88 9 88 78v682q0 33 -20 47t-68 19l-41 4q-14 0 -14 8v45l2 4q162 -4 225 -4l213 4l2 -4v-43q0 -10 -12 -10l-43 -4q-47 -4 -66.5 -19.5t-19.5 -46.5v-682q0 -36 19 -55t67 -23l43 -4q12 0 12 -12v-43l-2 -4q-156 4 -219 4l-217 -4zM178 1053 q0 27 12 47l164 258q12 4 29 4q58 0 100 -37q7 -7 13 -10l6 -23l-236 -223q-41 -41 -59 -41q-10 0 -19.5 8t-9.5 17z" />
<glyph unicode="&#xee;" horiz-adv-x="571" d="M27 1069q149 165 211 264h102q67 -109 207 -264l-43 -29q-139 102 -217 185q-95 -98 -219 -185zM66 0v43q0 12 14 12l41 4q88 9 88 78v682q0 33 -20 47t-68 19l-41 4q-14 0 -14 8v45l2 4q162 -4 225 -4l213 4l2 -4v-43q0 -10 -12 -10l-43 -4q-47 -4 -66.5 -19.5 t-19.5 -46.5v-682q0 -36 19 -55t67 -23l43 -4q12 0 12 -12v-43l-2 -4q-156 4 -219 4l-217 -4z" />
<glyph unicode="&#xef;" horiz-adv-x="571" d="M20 1176q0 38 27.5 65t65.5 27t66 -27t28 -65t-28 -66.5t-66 -28.5t-65.5 28.5t-27.5 66.5zM66 0v43q0 12 14 12l41 4q88 9 88 78v682q0 33 -20 47t-68 19l-41 4q-14 0 -14 8v45l2 4q162 -4 225 -4l213 4l2 -4v-43q0 -10 -12 -10l-43 -4q-47 -4 -66.5 -19.5t-19.5 -46.5 v-682q0 -36 19 -55t67 -23l43 -4q12 0 12 -12v-43l-2 -4q-156 4 -219 4l-217 -4zM348 1176q0 38 28 65t66 27t65.5 -27t27.5 -65t-27.5 -66.5t-65.5 -28.5t-66 28.5t-28 66.5z" />
<glyph unicode="&#xf0;" horiz-adv-x="1148" d="M61 426v80h146v313q0 39 -15 50t-67 16l-45 4q-14 0 -14 10v43l2 4l200 -4q218 4 287 4q113 0 209 -37.5t161.5 -102.5t102.5 -154.5t37 -190.5q0 -104 -28.5 -185.5t-75 -133t-110.5 -85.5t-129.5 -47.5t-137.5 -13.5q-95 0 -198 2t-118 2l-200 -4l-2 4v43q0 12 12 12 l47 4q46 5 64 24.5t18 66.5v276h-146zM365 145q0 -19 2.5 -31.5t12.5 -25t28 -19.5t49.5 -11.5t77.5 -4.5q180 0 272 84t92 289q0 463 -403 463q-68 0 -99.5 -11.5t-31.5 -46.5v-325h124v-80h-124v-281z" />
<glyph unicode="&#xf1;" horiz-adv-x="1169" d="M66 0v43q0 12 20 12l41 4q88 8 88 86v668q-18 33 -45 52.5t-80 23.5q-18 0 -18 12v39l4 6l276 -4l469 -637q43 -49 58 -49q14 0 14 53v486q0 33 -23.5 59.5t-66.5 30.5l-43 4q-21 0 -21 10v43l4 4q140 -4 195 -4l182 4l6 -2v-45q0 -10 -14 -10l-41 -4q-88 -9 -88 -90 v-764q0 -56 -41 -56q-23 0 -39.5 9.5t-40.5 35.5l-481 642q-40 49 -55 49q-21 0 -21 -72v-494q0 -35 24 -58.5t68 -27.5l41 -4q15 0 15 -12v-43l-2 -4q-126 4 -189 4l-190 -4zM350 1090q22 93 60.5 137.5t103.5 44.5q66 0 148 -58q59 -45 106 -45q35 0 58 22.5t44 84.5 l50 -12q-38 -185 -179 -185q-51 0 -131 54q-72 45 -110 45q-39 0 -62.5 -23.5t-38.5 -75.5z" />
<glyph unicode="&#xf2;" horiz-adv-x="1136" d="M76 455q0 225 140.5 370.5t354.5 145.5q133 0 245 -61t179.5 -174t67.5 -255q0 -101 -33 -191.5t-94.5 -161t-160 -112t-220.5 -41.5q-207 0 -343 135.5t-136 344.5zM246 479q0 -189 95.5 -311.5t244.5 -122.5q138 0 222.5 110.5t84.5 297.5q0 199 -99.5 322.5 t-240.5 123.5q-124 0 -215.5 -112t-91.5 -308zM375 1303l4 22q63 47 133 47q15 0 31 -4l143 -258q12 -24 12 -49q0 -8 -9 -15.5t-21 -7.5q-16 0 -60 41z" />
<glyph unicode="&#xf3;" horiz-adv-x="1136" d="M76 455q0 225 140.5 370.5t354.5 145.5q133 0 245 -61t179.5 -174t67.5 -255q0 -101 -33 -191.5t-94.5 -161t-160 -112t-220.5 -41.5q-207 0 -343 135.5t-136 344.5zM246 479q0 -189 95.5 -311.5t244.5 -122.5q138 0 222.5 110.5t84.5 297.5q0 199 -99.5 322.5 t-240.5 123.5q-124 0 -215.5 -112t-91.5 -308zM457 1053q0 27 12 47l164 258q12 4 29 4q58 0 100 -37q8 -8 12 -10l6 -23l-235 -223q-41 -41 -60 -41q-10 0 -19 8t-9 17z" />
<glyph unicode="&#xf4;" horiz-adv-x="1136" d="M76 455q0 225 140.5 370.5t354.5 145.5q133 0 245 -61t179.5 -174t67.5 -255q0 -101 -33 -191.5t-94.5 -161t-160 -112t-220.5 -41.5q-207 0 -343 135.5t-136 344.5zM246 479q0 -189 95.5 -311.5t244.5 -122.5q138 0 222.5 110.5t84.5 297.5q0 199 -99.5 322.5 t-240.5 123.5q-124 0 -215.5 -112t-91.5 -308zM319 1061q149 165 211 264h103q67 -109 207 -264l-43 -29q-139 102 -217 185q-93 -95 -220 -185z" />
<glyph unicode="&#xf5;" horiz-adv-x="1136" d="M76 455q0 225 140.5 370.5t354.5 145.5q133 0 245 -61t179.5 -174t67.5 -255q0 -101 -33 -191.5t-94.5 -161t-160 -112t-220.5 -41.5q-207 0 -343 135.5t-136 344.5zM246 479q0 -189 95.5 -311.5t244.5 -122.5q138 0 222.5 110.5t84.5 297.5q0 199 -99.5 322.5 t-240.5 123.5q-124 0 -215.5 -112t-91.5 -308zM276 1090q22 93 60.5 137.5t103.5 44.5q66 0 148 -58q59 -45 106 -45q36 0 59 22.5t44 84.5l49 -12q-38 -185 -178 -185q-51 0 -131 54q-72 45 -111 45t-62 -23.5t-38 -75.5z" />
<glyph unicode="&#xf6;" horiz-adv-x="1136" d="M76 455q0 225 140.5 370.5t354.5 145.5q133 0 245 -61t179.5 -174t67.5 -255q0 -101 -33 -191.5t-94.5 -161t-160 -112t-220.5 -41.5q-207 0 -343 135.5t-136 344.5zM246 479q0 -189 95.5 -311.5t244.5 -122.5q138 0 222.5 110.5t84.5 297.5q0 199 -99.5 322.5 t-240.5 123.5q-124 0 -215.5 -112t-91.5 -308zM319 1174q0 38 27.5 65t65.5 27t66 -27t28 -65t-28 -66.5t-66 -28.5t-65.5 28.5t-27.5 66.5zM647 1174q0 38 28 65t66 27t65.5 -27t27.5 -65t-27.5 -66.5t-65.5 -28.5t-66 28.5t-28 66.5z" />
<glyph unicode="&#xf7;" horiz-adv-x="1079" d="M135 426v100h809v-100h-809zM452 201q0 37 27 64t64 27t64 -27t27 -64t-27 -64t-64 -27t-64 27t-27 64zM452 750q0 38 27 64.5t64 26.5t64 -26.5t27 -64.5t-27 -64.5t-64 -26.5t-64 26.5t-27 64.5z" />
<glyph unicode="&#xf8;" horiz-adv-x="1136" d="M76 455q0 225 140.5 370.5t354.5 145.5q146 0 268 -75l81 114l59 -39l-83 -117q78 -66 122.5 -162.5t44.5 -210.5q0 -101 -33 -191.5t-94.5 -161t-160 -112t-220.5 -41.5q-132 0 -241 59l-91 -128l-59 39l91 128q-84 65 -131.5 164t-47.5 218zM246 479q0 -178 85 -298 l441 620q-93 98 -219 98q-124 0 -215.5 -112t-91.5 -308zM379 126q87 -81 207 -81q138 0 222.5 110.5t84.5 297.5q0 170 -76 290z" />
<glyph unicode="&#xf9;" horiz-adv-x="1144" d="M55 899v43l2 4q156 -4 219 -4l213 4l3 -4v-43q0 -10 -13 -10l-41 -4q-49 -5 -68.5 -20t-19.5 -46v-405q0 -64 4.5 -112.5t20 -100.5t41.5 -85.5t72.5 -55t109.5 -21.5q78 0 132 26t81 59.5t41 95.5t16 101.5t2 110.5v387q0 33 -20.5 47t-67.5 19l-41 4q-14 0 -14 10v43 l4 4q123 -4 184 -4l172 4l3 -4v-43q0 -10 -13 -10l-35 -4q-46 -6 -62.5 -20t-16.5 -46v-360q0 -91 -10 -160t-36 -131t-70.5 -102t-115.5 -63t-168 -23q-45 0 -92.5 11.5t-98 41t-90 72.5t-64.5 112t-25 154v448q0 33 -19 46.5t-70 19.5l-36 4q-13 0 -13 10zM381 1303l4 22 q63 47 133 47q15 0 31 -4l143 -258q13 -26 13 -49q0 -8 -9.5 -15.5t-21.5 -7.5q-16 0 -60 41z" />
<glyph unicode="&#xfa;" horiz-adv-x="1144" d="M55 899v43l2 4q156 -4 219 -4l213 4l3 -4v-43q0 -10 -13 -10l-41 -4q-49 -5 -68.5 -20t-19.5 -46v-405q0 -64 4.5 -112.5t20 -100.5t41.5 -85.5t72.5 -55t109.5 -21.5q78 0 132 26t81 59.5t41 95.5t16 101.5t2 110.5v387q0 33 -20.5 47t-67.5 19l-41 4q-14 0 -14 10v43 l4 4q123 -4 184 -4l172 4l3 -4v-43q0 -10 -13 -10l-35 -4q-46 -6 -62.5 -20t-16.5 -46v-360q0 -91 -10 -160t-36 -131t-70.5 -102t-115.5 -63t-168 -23q-45 0 -92.5 11.5t-98 41t-90 72.5t-64.5 112t-25 154v448q0 33 -19 46.5t-70 19.5l-36 4q-13 0 -13 10zM526 1053 q0 25 13 47l163 258q12 4 29 4q58 0 100 -37q7 -7 13 -10l6 -23l-236 -223q-41 -41 -59 -41q-10 0 -19.5 8t-9.5 17z" />
<glyph unicode="&#xfb;" horiz-adv-x="1144" d="M55 899v43l2 4q156 -4 219 -4l213 4l3 -4v-43q0 -10 -13 -10l-41 -4q-49 -5 -68.5 -20t-19.5 -46v-405q0 -64 4.5 -112.5t20 -100.5t41.5 -85.5t72.5 -55t109.5 -21.5q78 0 132 26t81 59.5t41 95.5t16 101.5t2 110.5v387q0 33 -20.5 47t-67.5 19l-41 4q-14 0 -14 10v43 l4 4q123 -4 184 -4l172 4l3 -4v-43q0 -10 -13 -10l-35 -4q-46 -6 -62.5 -20t-16.5 -46v-360q0 -91 -10 -160t-36 -131t-70.5 -102t-115.5 -63t-168 -23q-45 0 -92.5 11.5t-98 41t-90 72.5t-64.5 112t-25 154v448q0 33 -19 46.5t-70 19.5l-36 4q-13 0 -13 10zM348 1059 q149 165 211 264h103q69 -112 206 -264l-43 -29q-142 105 -217 184q-92 -95 -219 -184z" />
<glyph unicode="&#xfc;" horiz-adv-x="1144" d="M55 899v43l2 4q156 -4 219 -4l213 4l3 -4v-43q0 -10 -13 -10l-41 -4q-49 -5 -68.5 -20t-19.5 -46v-405q0 -64 4.5 -112.5t20 -100.5t41.5 -85.5t72.5 -55t109.5 -21.5q78 0 132 26t81 59.5t41 95.5t16 101.5t2 110.5v387q0 33 -20.5 47t-67.5 19l-41 4q-14 0 -14 10v43 l4 4q123 -4 184 -4l172 4l3 -4v-43q0 -10 -13 -10l-35 -4q-46 -6 -62.5 -20t-16.5 -46v-360q0 -91 -10 -160t-36 -131t-70.5 -102t-115.5 -63t-168 -23q-45 0 -92.5 11.5t-98 41t-90 72.5t-64.5 112t-25 154v448q0 33 -19 46.5t-70 19.5l-36 4q-13 0 -13 10zM362 1174 q0 38 27.5 65t65.5 27t66 -27t28 -65t-28 -66.5t-66 -28.5t-65.5 28.5t-27.5 66.5zM690 1174q0 38 28 65t66 27t65.5 -27t27.5 -65t-27.5 -66.5t-65.5 -28.5t-66 28.5t-28 66.5z" />
<glyph unicode="&#xfd;" horiz-adv-x="980" d="M25 899v43l4 4q8 0 82 -2t86 -2q156 0 206 4l3 -2v-45q0 -3 -3.5 -6.5t-7.5 -3.5l-45 -4q-34 -3 -36 -18.5t16 -39.5l207 -338h4l190 338q21 37 17.5 46t-39.5 12l-47 4q-9 0 -9 10v45l4 2q12 0 80 -2t78 -2q77 0 139 4l2 -4v-43q0 -8 -14 -10l-35 -4q-47 -6 -64 -19.5 t-42 -58.5l-226 -397v-285q0 -33 19.5 -47t67.5 -19l43 -4q14 0 14 -12v-43l-4 -4q-156 4 -219 4l-217 -4l-5 4v43q0 5 4.5 8.5t10.5 3.5l41 4q47 4 67.5 19.5t20.5 46.5v276l-258 424q-20 31 -46.5 45t-72.5 19q-16 0 -16 10zM438 1065q0 25 13 47l163 258q12 4 29 4 q58 0 100 -37q7 -7 13 -10l6 -22l-236 -224q-41 -41 -59 -41q-10 0 -19.5 8t-9.5 17z" />
<glyph unicode="&#xfe;" horiz-adv-x="921" d="M59 0v43q4 11 15 12l49 4q42 4 52.5 16.5t10.5 53.5v688q0 39 -12.5 51t-50.5 15l-49 4q-15 2 -15 10v45l4 4q125 -4 199 -4l205 4l2 -4v-45q0 -9 -12 -10l-51 -4q-18 -1 -26.5 -3t-18.5 -8t-13.5 -19.5t-3.5 -35.5v-57q106 4 152 4q88 0 156 -19t106 -47.5t62 -67.5 t32 -73t8 -70q0 -46 -19.5 -93t-61.5 -92.5t-121.5 -74t-184.5 -28.5q-95 0 -129 10v-80q0 -44 11.5 -55.5t50.5 -14.5l49 -4q14 0 14 -12v-43l-2 -4q-154 4 -203 4q-127 0 -201 -4zM344 270q21 -8 121 -8q118 0 174.5 53t56.5 174q0 111 -51 161t-151 50q-76 0 -150 -16 v-414z" />
<glyph unicode="&#xff;" horiz-adv-x="980" d="M25 899v43l4 4q8 0 82 -2t86 -2q156 0 206 4l3 -2v-45q0 -3 -3.5 -6.5t-7.5 -3.5l-45 -4q-34 -3 -36 -18.5t16 -39.5l207 -338h4l190 338q21 37 17.5 46t-39.5 12l-47 4q-9 0 -9 10v45l4 2q12 0 80 -2t78 -2q77 0 139 4l2 -4v-43q0 -8 -14 -10l-35 -4q-47 -6 -64 -19.5 t-42 -58.5l-226 -397v-285q0 -33 19.5 -47t67.5 -19l43 -4q14 0 14 -12v-43l-4 -4q-156 4 -219 4l-217 -4l-5 4v43q0 5 4.5 8.5t10.5 3.5l41 4q47 4 67.5 19.5t20.5 46.5v276l-258 424q-20 31 -46.5 45t-72.5 19q-16 0 -16 10zM272 1174q0 38 27.5 65t65.5 27t66 -27t28 -65 t-28 -66.5t-66 -28.5t-65.5 28.5t-27.5 66.5zM600 1174q0 38 28 65t66 27t65 -27t27 -65q0 -39 -27 -67t-65 -28t-66 28.5t-28 66.5z" />
<glyph unicode="&#x152;" horiz-adv-x="1738" d="M86 651q0 140 38.5 261t110 213t184 145t251.5 53q141 -2 233 -2h160h526l29 -285l-55 -6q-12 76 -65 142.5t-126 66.5h-313q-38 0 -56 -14.5t-18 -50.5v-424h215q52 0 72.5 21t32.5 69l14 61q0 6 4 11.5t10 5.5h45q6 0 6 -9q-1 -22 -8.5 -88.5t-7.5 -105.5 q0 -32 2.5 -64t7 -73t6.5 -60l-4 -6h-47q-16 0 -16 14l-12 64q-10 46 -32.5 68t-72.5 22h-215v-533q0 -39 18.5 -53t55.5 -14h321q94 0 146.5 67.5t77.5 190.5l55 -10l-53 -328h-705l-209 -4q-141 1 -256.5 51.5t-191.5 138.5t-117 207t-41 258zM272 670q0 -153 35 -272 t94.5 -190t132 -106.5t154.5 -35.5h27q60 0 82 18.5t22 62.5v1029q0 46 -21.5 60.5t-82.5 14.5h-72q-78 0 -142.5 -30t-117 -95t-82 -181t-29.5 -275z" />
<glyph unicode="&#x153;" horiz-adv-x="1390" d="M59 455q0 216 135 353.5t351 137.5q1 0 35 -1t80.5 -2t80.5 -1h346l207 4l4 -4q2 -84 31 -246l-51 -8q-9 29 -16.5 49t-23.5 48t-35 45t-49.5 29.5t-68.5 12.5h-206q-64 0 -64 -47v-309h164q38 0 55 16t25 50l10 43q4 12 12 12h35q6 0 6 -6q-12 -141 -12 -154 q0 -43 12 -141l-4 -4h-37q-9 0 -14 10l-8 45q-6 33 -24 48.5t-56 15.5h-164v-332q0 -49 64 -49h229q74 0 115 43.5t61 128.5l51 -6l-41 -236l-4 -4q-121 4 -182 4h-360q-44 0 -116 -2t-85 -2q-212 0 -350 124.5t-138 334.5zM233 479q0 -208 91.5 -316t253.5 -108 q51 0 67.5 15t16.5 53v698q0 42 -31.5 54t-106.5 12q-48 0 -89.5 -12.5t-79 -43t-64.5 -76t-42.5 -116.5t-15.5 -160z" />
<glyph unicode="&#x178;" horiz-adv-x="1175" d="M0 1280v41l4 4q188 -4 215 -4l234 4l4 -4v-39q0 -16 -13 -16l-59 -2q-26 -1 -39 -6t-13 -17.5t5.5 -24.5t19.5 -36l281 -494h4l262 494q23 49 16 64.5t-44 17.5l-62 4q-10 1 -10 14v41l4 4q159 -4 186 -4l179 4l4 -4v-41q0 -12 -21 -14l-43 -4q-49 -5 -73 -27.5 t-53 -77.5l-289 -522q-15 -27 -15 -87v-401q0 -48 26.5 -70t86.5 -22h55q16 0 16 -16v-39l-4 -4q-178 4 -258 4l-264 -4l-4 4v39q0 16 16 16h54q60 0 86 23.5t26 68.5v383q0 59 -17 88l-299 502q-52 87 -79 113.5t-80 30.5l-25 2q-20 0 -20 14zM369 1538q0 38 27 65t65 27 t66 -27t28 -65t-28 -66t-66 -28t-65 28t-27 66zM696 1538q0 38 28 65t67 27q38 0 65 -27t27 -65t-27 -66t-65 -28t-66.5 28t-28.5 66z" />
<glyph unicode="&#x2c6;" horiz-adv-x="714" d="M102 1104q149 165 211 264h103q67 -109 207 -264l-43 -29q-142 105 -218 185q-95 -98 -219 -185z" />
<glyph unicode="&#x2dc;" horiz-adv-x="598" d="M10 1186q22 93 60.5 137.5t103.5 44.5q67 0 148 -57q59 -45 106 -45q36 0 58.5 22t43.5 84l50 -12q-37 -184 -179 -184q-52 0 -131 53q-72 45 -110 45q-39 0 -62.5 -23t-38.5 -75z" />
<glyph unicode="&#x2000;" horiz-adv-x="839" />
<glyph unicode="&#x2001;" horiz-adv-x="1679" />
<glyph unicode="&#x2002;" horiz-adv-x="839" />
<glyph unicode="&#x2003;" horiz-adv-x="1679" />
<glyph unicode="&#x2004;" horiz-adv-x="559" />
<glyph unicode="&#x2005;" horiz-adv-x="419" />
<glyph unicode="&#x2006;" horiz-adv-x="279" />
<glyph unicode="&#x2007;" horiz-adv-x="279" />
<glyph unicode="&#x2008;" horiz-adv-x="209" />
<glyph unicode="&#x2009;" horiz-adv-x="335" />
<glyph unicode="&#x200a;" horiz-adv-x="93" />
<glyph unicode="&#x2010;" horiz-adv-x="681" d="M68 479q0 25 16.5 50.5t34.5 25.5h469q28 0 28 -37q0 -19 -18 -46.5t-37 -27.5h-463q-13 0 -21.5 10.5t-8.5 24.5z" />
<glyph unicode="&#x2011;" horiz-adv-x="681" d="M68 479q0 25 16.5 50.5t34.5 25.5h469q28 0 28 -37q0 -19 -18 -46.5t-37 -27.5h-463q-13 0 -21.5 10.5t-8.5 24.5z" />
<glyph unicode="&#x2012;" horiz-adv-x="681" d="M68 479q0 25 16.5 50.5t34.5 25.5h469q28 0 28 -37q0 -19 -18 -46.5t-37 -27.5h-463q-13 0 -21.5 10.5t-8.5 24.5z" />
<glyph unicode="&#x2013;" horiz-adv-x="1093" d="M82 487v101h932v-101h-932z" />
<glyph unicode="&#x2014;" horiz-adv-x="1519" d="M59 487v101h1401v-101h-1401z" />
<glyph unicode="&#x2018;" horiz-adv-x="548" d="M150 1241q0 102 73 173.5t172 90.5q21 -18 11 -51q-73 -19 -125 -72t-52 -90q0 -32 20 -45.5t54 -17.5q90 -15 90 -90q0 -43 -30.5 -72t-77.5 -29q-61 0 -98 55.5t-37 147.5z" />
<glyph unicode="&#x2019;" horiz-adv-x="548" d="M145 1008q73 19 125 71.5t52 89.5q0 56 -74 64q-90 15 -90 90q0 43 30.5 71.5t77.5 28.5q62 0 98.5 -55t36.5 -147q0 -102 -73 -174t-172 -91q-21 18 -11 52z" />
<glyph unicode="&#x201a;" horiz-adv-x="548" d="M145 -221q73 19 125 72t52 90q0 32 -20 45.5t-54 17.5q-90 15 -90 90q0 43 30.5 72t77.5 29q61 0 98 -55.5t37 -147.5q0 -102 -73 -173.5t-172 -90.5q-21 18 -11 51z" />
<glyph unicode="&#x201c;" horiz-adv-x="768" d="M98 1243q0 102 73.5 173.5t172.5 90.5q20 -17 10 -51q-73 -19 -124.5 -72t-51.5 -90q0 -32 20 -45.5t54 -17.5q90 -15 90 -90q0 -43 -31 -72t-78 -29q-61 0 -98 55.5t-37 147.5zM420 1243q0 102 73.5 173.5t172.5 90.5q20 -17 10 -51q-73 -19 -124.5 -72t-51.5 -90 q0 -56 73 -63q91 -15 91 -90q0 -43 -31 -72t-78 -29q-61 0 -98 55.5t-37 147.5z" />
<glyph unicode="&#x201d;" horiz-adv-x="768" d="M94 1024q73 19 124.5 72t51.5 90q0 56 -73 63q-91 15 -91 90q0 43 31 72t78 29q61 0 98 -55.5t37 -147.5q0 -102 -73.5 -173.5t-172.5 -90.5q-20 17 -10 51zM416 1024q73 19 124.5 72t51.5 90q0 32 -20 45.5t-54 17.5q-90 15 -90 90q0 43 31 72t78 29q61 0 98 -55.5 t37 -147.5q0 -102 -73.5 -173.5t-172.5 -90.5q-20 17 -10 51z" />
<glyph unicode="&#x201e;" horiz-adv-x="768" d="M94 -211q73 19 124.5 72t51.5 90q0 56 -73 63q-91 15 -91 90q0 43 31 72t78 29q61 0 98 -55.5t37 -147.5q0 -102 -73.5 -173.5t-172.5 -90.5q-20 17 -10 51zM416 -211q73 19 124.5 72t51.5 90q0 32 -20 45.5t-54 17.5q-90 15 -90 90q0 43 31 72t78 29q61 0 98 -55.5 t37 -147.5q0 -102 -73.5 -173.5t-172.5 -90.5q-20 17 -10 51z" />
<glyph unicode="&#x2022;" horiz-adv-x="718" d="M100 479q0 104 78.5 180t179.5 76q104 0 182 -76.5t78 -185.5q0 -101 -72.5 -179.5t-187.5 -78.5q-106 0 -182 77t-76 187z" />
<glyph unicode="&#x2026;" horiz-adv-x="1492" d="M117 88q0 44 32 76.5t76 32.5t76.5 -32.5t32.5 -76.5t-32.5 -76t-76.5 -32t-76 32t-32 76zM637 88q0 44 32 76.5t76 32.5t76.5 -32.5t32.5 -76.5t-32.5 -76t-76.5 -32t-76 32t-32 76zM1161 88q0 44 32.5 76.5t76.5 32.5t76 -32.5t32 -76.5t-32 -76t-76 -32t-76.5 32 t-32.5 76z" />
<glyph unicode="&#x202f;" horiz-adv-x="335" />
<glyph unicode="&#x2039;" horiz-adv-x="727" d="M139 401v80q213 147 451 400v-111q-148 -209 -287 -330q133 -107 287 -327v-111q-247 287 -451 399z" />
<glyph unicode="&#x203a;" horiz-adv-x="727" d="M139 0v111q147 206 287 329q-132 106 -287 328v111q249 -289 451 -400v-80q-216 -149 -451 -399z" />
<glyph unicode="&#x205f;" horiz-adv-x="419" />
<glyph unicode="&#x20ac;" horiz-adv-x="897" d="M0 457v18l41 51h75q-1 15 -1 45q0 41 1 60h-87l2 20l39 49h52q28 229 146 363.5t291 134.5q56 0 144 -16.5t114 -14.5q2 -97 41 -299l-61 -10q-14 57 -31.5 100.5t-45 84t-69.5 62t-96 21.5q-77 0 -135 -58.5t-90.5 -152.5t-42.5 -215h452l-37 -69h-419v-37q0 -46 1 -68 h384l-37 -69h-343q34 -396 281 -396q28 0 51.5 5.5t43.5 18.5t35 25t30 36t24 39t21.5 46.5t18.5 47.5t18 51l61 -15q-9 -46 -39.5 -156.5t-37.5 -152.5q-26 2 -107.5 -14.5t-136.5 -16.5q-179 0 -292.5 129.5t-137.5 352.5h-121z" />
<glyph unicode="&#xe000;" horiz-adv-x="945" d="M0 0v945h945v-945h-945z" />
</font>
</defs>
</svg>
